<?xml version="1.0" encoding="UTF-8"?>
<!DOCTYPE svg PUBLIC "-//W3C//DTD SVG 1.1//EN" "http://www.w3.org/Graphics/SVG/1.1/DTD/svg11.dtd">
<!-- Creator: CorelDRAW X7 -->
<svg xmlns="http://www.w3.org/2000/svg" xml:space="preserve" width="152.763mm" height="13.912mm" version="1.1" style="shape-rendering:geometricPrecision; text-rendering:geometricPrecision; image-rendering:optimizeQuality; fill-rule:evenodd; clip-rule:evenodd"
viewBox="0 0 14964 1363"
 xmlns:xlink="http://www.w3.org/1999/xlink">
 <defs>
  <style type="text/css">
   <![CDATA[
    .str0 {stroke:#1B4E9B;stroke-width:48.9763;stroke-linecap:round;stroke-linejoin:round}
    .fil0 {fill:none;fill-rule:nonzero}
    .fil1 {fill:#1B4E9B;fill-rule:nonzero}
   ]]>
  </style>
 </defs>
 <g id="Слой_x0020_1">
  <metadata id="CorelCorpID_0Corel-Layer"/>
  <g>
   <path class="fil0 str0" d="M652 243c-21,150 -42,281 -64,392 -23,113 -46,209 -70,289 -25,81 -51,147 -79,199 -28,52 -58,93 -90,124 -32,30 -67,52 -104,63 -37,12 -78,19 -124,19 -35,0 -67,-4 -97,-12l0 -206c23,5 46,8 68,8 25,0 46,-4 66,-12 19,-7 37,-22 55,-44 19,-21 38,-54 58,-99 21,-45 42,-107 63,-186 21,-79 42,-178 63,-297 22,-118 43,-262 65,-431l675 0 0 1265 -232 0 0 -1072 -253 0zm786 1072l0 -1265 233 0 0 1265 -233 0zm1054 0l-232 0 0 -1072 -409 0 0 -193 1049 0 0 193 -408 0 0 1072zm1477 -634c0,-77 -10,-144 -29,-202 -19,-58 -45,-106 -78,-144 -34,-39 -73,-67 -119,-86 -46,-19 -96,-29 -151,-29 -55,0 -106,10 -151,29 -46,19 -86,47 -119,86 -34,38 -60,86 -79,144 -19,58 -28,125 -28,202 0,77 9,145 28,203 19,57 45,105 79,144 33,38 73,66 119,86 45,19 96,29 151,29 55,0 105,-10 151,-29 46,-20 85,-48 119,-86 33,-39 59,-87 78,-144 19,-58 29,-126 29,-203zm240 0c0,97 -14,185 -41,266 -28,80 -68,150 -121,207 -52,59 -117,104 -194,136 -76,32 -163,48 -261,48 -98,0 -185,-16 -262,-48 -77,-32 -141,-77 -194,-136 -53,-57 -93,-127 -120,-207 -28,-81 -41,-169 -41,-266 0,-96 13,-185 41,-265 27,-81 67,-150 120,-208 53,-58 117,-103 194,-135 77,-32 164,-49 262,-49 98,0 185,17 261,49 77,32 142,77 194,135 53,58 93,127 121,208 27,80 41,169 41,265zm1528 634l0 -476c-39,13 -86,23 -141,33 -55,10 -106,15 -154,15 -60,0 -111,-6 -155,-16 -45,-11 -82,-27 -114,-47 -31,-20 -57,-44 -77,-73 -20,-29 -36,-61 -47,-97 -9,-30 -16,-64 -20,-101 -3,-37 -5,-77 -5,-122l0 -381 233 0 0 385c0,32 1,61 4,86 2,25 7,47 14,65 13,37 35,64 65,80 31,17 73,25 126,25 45,0 92,-4 140,-14 48,-9 92,-20 131,-32l0 -595 233 0 0 1265 -233 0zm767 -194l623 0 0 194 -855 0 0 -1265 821 0 0 193 -589 0 0 328 506 0 0 194 -506 0 0 356zm868 194l0 -1265 232 0 0 575 4 0 478 -575 287 0 -527 627 571 638 -297 0 -512 -571 -4 0 0 571 -232 0zm1950 -322l-479 0 -123 322 -247 0 503 -1265 212 0 502 1265 -245 0 -123 -322zm-241 -639c-45,132 -85,242 -120,331l-43 115 330 0 -43 -115c-35,-89 -75,-200 -120,-331l-4 0zm1413 -134c-57,0 -110,8 -159,23 -49,15 -93,37 -131,67 -37,29 -69,65 -93,109 -25,43 -42,93 -50,150l631 0 0 194 -638 0c4,63 16,118 38,166 21,47 50,87 87,119 37,31 81,55 132,71 51,15 107,24 169,24 41,0 90,-4 145,-11 56,-7 106,-18 152,-32l0 198c-44,12 -94,22 -150,30 -56,7 -110,10 -162,10 -108,0 -203,-15 -284,-46 -82,-30 -150,-74 -204,-130 -55,-56 -95,-124 -123,-203 -27,-79 -40,-167 -40,-264 0,-96 14,-184 44,-266 30,-82 73,-152 130,-212 57,-60 126,-107 207,-141 81,-34 174,-52 278,-52 56,0 109,4 159,11 50,8 95,18 133,31l0 195c-49,-15 -98,-26 -146,-32 -47,-6 -89,-9 -125,-9zm1731 1095l-232 0 0 -1072 -409 0 0 -193 1049 0 0 193 -408 0 0 1072zm1153 -297c-28,59 -58,109 -89,150 -31,41 -64,74 -101,99 -36,25 -76,44 -119,55 -43,11 -92,16 -145,16 -21,0 -44,-1 -69,-3 -25,-2 -49,-6 -71,-11l0 -198c24,6 47,10 69,13 22,2 42,4 61,4 29,0 55,-4 78,-10 24,-6 45,-17 65,-33 21,-16 40,-37 59,-64 18,-27 37,-62 56,-104l-493 -882 257 0 356 647 298 -647 252 0 -464 968zm1153 297l-232 0 0 -1072 -409 0 0 -193 1049 0 0 193 -408 0 0 1072z"/>
   <path id="1" class="fil1" d="M652 243c-21,150 -42,281 -64,392 -23,113 -46,209 -70,289 -25,81 -51,147 -79,199 -28,52 -58,93 -90,124 -32,30 -67,52 -104,63 -37,12 -78,19 -124,19 -35,0 -67,-4 -97,-12l0 -206c23,5 46,8 68,8 25,0 46,-4 66,-12 19,-7 37,-22 55,-44 19,-21 38,-54 58,-99 21,-45 42,-107 63,-186 21,-79 42,-178 63,-297 22,-118 43,-262 65,-431l675 0 0 1265 -232 0 0 -1072 -253 0zm786 1072l0 -1265 233 0 0 1265 -233 0zm1054 0l-232 0 0 -1072 -409 0 0 -193 1049 0 0 193 -408 0 0 1072zm1477 -634c0,-77 -10,-144 -29,-202 -19,-58 -45,-106 -78,-144 -34,-39 -73,-67 -119,-86 -46,-19 -96,-29 -151,-29 -55,0 -106,10 -151,29 -46,19 -86,47 -119,86 -34,38 -60,86 -79,144 -19,58 -28,125 -28,202 0,77 9,145 28,203 19,57 45,105 79,144 33,38 73,66 119,86 45,19 96,29 151,29 55,0 105,-10 151,-29 46,-20 85,-48 119,-86 33,-39 59,-87 78,-144 19,-58 29,-126 29,-203zm240 0c0,97 -14,185 -41,266 -28,80 -68,150 -121,207 -52,59 -117,104 -194,136 -76,32 -163,48 -261,48 -98,0 -185,-16 -262,-48 -77,-32 -141,-77 -194,-136 -53,-57 -93,-127 -120,-207 -28,-81 -41,-169 -41,-266 0,-96 13,-185 41,-265 27,-81 67,-150 120,-208 53,-58 117,-103 194,-135 77,-32 164,-49 262,-49 98,0 185,17 261,49 77,32 142,77 194,135 53,58 93,127 121,208 27,80 41,169 41,265zm1528 634l0 -476c-39,13 -86,23 -141,33 -55,10 -106,15 -154,15 -60,0 -111,-6 -155,-16 -45,-11 -82,-27 -114,-47 -31,-20 -57,-44 -77,-73 -20,-29 -36,-61 -47,-97 -9,-30 -16,-64 -20,-101 -3,-37 -5,-77 -5,-122l0 -381 233 0 0 385c0,32 1,61 4,86 2,25 7,47 14,65 13,37 35,64 65,80 31,17 73,25 126,25 45,0 92,-4 140,-14 48,-9 92,-20 131,-32l0 -595 233 0 0 1265 -233 0zm767 -194l623 0 0 194 -855 0 0 -1265 821 0 0 193 -589 0 0 328 506 0 0 194 -506 0 0 356zm868 194l0 -1265 232 0 0 575 4 0 478 -575 287 0 -527 627 571 638 -297 0 -512 -571 -4 0 0 571 -232 0zm1950 -322l-479 0 -123 322 -247 0 503 -1265 212 0 502 1265 -245 0 -123 -322zm-241 -639c-45,132 -85,242 -120,331l-43 115 330 0 -43 -115c-35,-89 -75,-200 -120,-331l-4 0zm1413 -134c-57,0 -110,8 -159,23 -49,15 -93,37 -131,67 -37,29 -69,65 -93,109 -25,43 -42,93 -50,150l631 0 0 194 -638 0c4,63 16,118 38,166 21,47 50,87 87,119 37,31 81,55 132,71 51,15 107,24 169,24 41,0 90,-4 145,-11 56,-7 106,-18 152,-32l0 198c-44,12 -94,22 -150,30 -56,7 -110,10 -162,10 -108,0 -203,-15 -284,-46 -82,-30 -150,-74 -204,-130 -55,-56 -95,-124 -123,-203 -27,-79 -40,-167 -40,-264 0,-96 14,-184 44,-266 30,-82 73,-152 130,-212 57,-60 126,-107 207,-141 81,-34 174,-52 278,-52 56,0 109,4 159,11 50,8 95,18 133,31l0 195c-49,-15 -98,-26 -146,-32 -47,-6 -89,-9 -125,-9zm1731 1095l-232 0 0 -1072 -409 0 0 -193 1049 0 0 193 -408 0 0 1072zm1153 -297c-28,59 -58,109 -89,150 -31,41 -64,74 -101,99 -36,25 -76,44 -119,55 -43,11 -92,16 -145,16 -21,0 -44,-1 -69,-3 -25,-2 -49,-6 -71,-11l0 -198c24,6 47,10 69,13 22,2 42,4 61,4 29,0 55,-4 78,-10 24,-6 45,-17 65,-33 21,-16 40,-37 59,-64 18,-27 37,-62 56,-104l-493 -882 257 0 356 647 298 -647 252 0 -464 968zm1153 297l-232 0 0 -1072 -409 0 0 -193 1049 0 0 193 -408 0 0 1072z"/>
  </g>
 </g>
</svg>
