<?xml version="1.0" encoding="UTF-8"?>
<!DOCTYPE svg PUBLIC "-//W3C//DTD SVG 1.1//EN" "http://www.w3.org/Graphics/SVG/1.1/DTD/svg11.dtd">
<!-- Creator: CorelDRAW X7 -->
<svg xmlns="http://www.w3.org/2000/svg" xml:space="preserve" width="107.151mm" height="14.9076mm" version="1.1" style="shape-rendering:geometricPrecision; text-rendering:geometricPrecision; image-rendering:optimizeQuality; fill-rule:evenodd; clip-rule:evenodd"
viewBox="0 0 8864 1233"
 xmlns:xlink="http://www.w3.org/1999/xlink">
 <defs>
  <style type="text/css">
   <![CDATA[
    .fil0 {fill:#FEFEFE;fill-rule:nonzero}
   ]]>
  </style>
 </defs>
 <g id="Слой_x0020_1">
  <metadata id="CorelCorpID_0Corel-Layer"/>
  <path class="fil0" d="M7 136l0 -41c97,-51 200,-82 311,-95 143,46 246,94 311,145 68,54 102,118 102,192 0,91 -65,199 -194,325 68,54 114,96 137,127 28,39 43,84 43,133 0,67 -15,119 -43,156 -14,18 -35,37 -63,55 -29,18 -59,35 -93,50 -33,15 -67,27 -101,36 -34,10 -63,14 -89,14 -76,0 -181,-23 -316,-71l0 -41c36,-25 66,-47 90,-64 24,-17 42,-32 53,-43 34,-34 51,-67 51,-102 0,-21 -7,-42 -20,-64 -14,-22 -30,-43 -50,-64 -19,-21 -41,-40 -65,-57 -24,-17 -48,-32 -71,-43l5 -73c76,-40 131,-81 166,-124 35,-43 52,-94 52,-154 0,-91 -72,-156 -216,-197zm1292 -117l406 0 566 1188 -487 21 -71 -195c-55,-1 -102,-2 -142,-3 -40,0 -71,-1 -94,-1 -24,0 -50,1 -78,1 -28,1 -57,2 -88,3l-67 195 -444 -15c88,-193 174,-388 258,-587 83,-199 164,-401 241,-607zm243 430l-105 237 214 22 -109 -259zm807 774c0,0 0,-15 1,-46 0,-30 1,-68 2,-112 0,-44 1,-91 1,-139 1,-49 1,-90 1,-125 0,-73 -2,-175 -7,-304 -4,-130 -11,-287 -20,-473 0,0 10,0 30,1 20,1 44,1 71,2 27,0 53,1 79,1 26,1 44,1 55,1 9,0 29,0 59,-1 31,0 62,-1 94,-1 32,-1 61,-1 87,-2 25,-1 38,-1 38,-1 3,83 7,156 10,218 3,62 6,114 9,155 64,7 105,11 122,11 3,0 11,-1 24,-1 14,-1 27,-1 38,-2 10,-1 17,-1 19,-1l0 -380 506 23c-2,63 -4,123 -5,179 -1,57 -1,110 -1,159 0,160 1,310 5,449 3,140 8,269 14,389l-529 0c2,-31 4,-69 6,-113 2,-45 3,-87 4,-127 0,-41 0,-75 0,-103 0,-28 0,-42 0,-42 -50,-11 -89,-16 -115,-16 -18,0 -49,2 -94,5 -4,75 -8,145 -10,211 -2,66 -3,127 -3,185l-491 0zm1308 -1087l0 -41c96,-51 200,-82 310,-95 143,46 247,94 311,145 68,54 102,118 102,192 0,91 -64,199 -193,325 68,54 113,96 136,127 29,39 43,84 43,133 0,67 -14,119 -43,156 -14,18 -35,37 -63,55 -28,18 -59,35 -92,50 -34,15 -67,27 -101,36 -34,10 -64,14 -89,14 -76,0 -182,-23 -316,-71l0 -41c35,-25 65,-47 90,-64 24,-17 42,-32 53,-43 34,-34 50,-67 50,-102 0,-21 -6,-42 -20,-64 -13,-22 -29,-43 -49,-64 -19,-21 -41,-40 -66,-57 -24,-17 -47,-32 -70,-43l5 -73c76,-40 131,-81 166,-124 34,-43 51,-94 51,-154 0,-91 -71,-156 -215,-197zm815 1087c0,0 0,-15 1,-43 0,-29 1,-64 1,-105 1,-41 2,-84 2,-129 1,-46 1,-85 1,-117 0,-89 -2,-200 -7,-334 -4,-134 -11,-291 -21,-471 0,0 10,0 31,1 20,1 43,1 69,3 26,1 51,2 77,2 25,1 43,1 53,1 9,0 29,0 58,-1 29,0 60,-1 92,-2 33,-2 61,-2 86,-3 25,-1 37,-1 37,-1 -5,97 -8,188 -9,275 -2,86 -3,167 -3,242 0,23 0,62 1,116 0,55 1,113 2,176 2,62 3,123 5,184 1,61 3,110 3,146 1,37 1,56 1,60l-480 0zm549 -1175l935 -34 0 364c-75,-11 -152,-22 -230,-31 -78,-9 -159,-17 -242,-22l9 129 349 56c28,4 60,17 95,38 36,20 68,45 97,75 29,29 54,61 74,96 21,34 31,67 31,100 0,10 -2,24 -5,43 -3,18 -6,37 -11,57 -5,19 -10,38 -16,54 -7,17 -13,29 -18,36l-111 124c-37,39 -78,65 -124,78 -29,8 -80,12 -152,12l-681 0c0,0 0,-18 1,-54 1,-35 1,-79 2,-130 0,-51 1,-105 1,-162 1,-56 1,-105 1,-146 0,-48 0,-107 0,-178 0,-72 0,-142 -1,-212 0,-70 -1,-132 -1,-187 -1,-56 -2,-91 -3,-106zm479 738l19 219c29,-7 59,-21 88,-43 30,-22 45,-47 45,-74 0,-21 -14,-41 -41,-61 -27,-19 -64,-33 -111,-41zm1207 -767l406 0 566 1188 -487 21 -71 -195c-55,-1 -102,-2 -142,-3 -40,0 -71,-1 -94,-1 -24,0 -50,1 -78,1 -28,1 -57,2 -88,3l-67 195 -444 -15c88,-193 174,-388 258,-587 83,-199 164,-401 241,-607zm243 430l-105 237 214 22 -109 -259zm1279 169l0 68c70,-26 129,-66 177,-121 41,-47 61,-88 61,-123 0,-31 -18,-62 -55,-93 -13,-10 -34,-25 -63,-42 -28,-18 -65,-40 -108,-65 -5,62 -8,124 -10,187 -2,63 -2,126 -2,189zm-479 -594l403 0c68,0 125,1 173,2 48,1 86,3 113,5 77,7 147,34 208,81 68,54 121,111 159,169 39,58 58,109 58,154 0,74 -9,142 -27,205 -19,63 -47,117 -85,163 -38,46 -86,82 -143,107 -58,26 -126,38 -204,38 -45,0 -102,-3 -170,-10 0,104 7,199 21,285l-508 0c12,-120 20,-231 25,-334 6,-103 8,-198 8,-284 0,-162 -10,-355 -31,-581z"/>
 </g>
</svg>
