<?xml version="1.0" encoding="UTF-8"?>
<!DOCTYPE svg PUBLIC "-//W3C//DTD SVG 1.1//EN" "http://www.w3.org/Graphics/SVG/1.1/DTD/svg11.dtd">
<!-- Creator: CorelDRAW X7 -->
<svg xmlns="http://www.w3.org/2000/svg" xml:space="preserve" width="749px" height="352px" version="1.1" shape-rendering="geometricPrecision" text-rendering="geometricPrecision" image-rendering="optimizeQuality" fill-rule="evenodd" clip-rule="evenodd"
viewBox="0 0 771 363"
 xmlns:xlink="http://www.w3.org/1999/xlink">
 <g id="Слой_x0020_1">
  <metadata id="CorelCorpID_0Corel-Layer"/>
  <path fill="#006CB5" fill-rule="nonzero" stroke="#006CB5" stroke-width="0.926324" d="M301 2l0 12c-8,0 -15,-1 -21,-1 -1,8 -1,16 -1,24 0,14 1,27 1,39l-16 0c1,-12 1,-25 1,-39 0,-8 0,-16 0,-24 -6,0 -13,1 -22,1l0 -12 58 0 0 0zm66 52c0,15 -12,22 -36,22 -5,0 -11,0 -20,0 0,-11 0,-24 0,-39 0,-13 0,-25 0,-35l9 0c1,0 4,0 9,0 4,0 7,0 9,0 17,0 25,5 25,16 0,8 -4,14 -13,17l0 1c5,0 9,2 12,5 4,3 5,7 5,13zm-15 0c0,-7 -6,-11 -20,-11 -2,0 -4,0 -6,0 0,8 0,15 0,22 1,0 3,1 6,1 7,0 12,-1 15,-3 3,-2 5,-5 5,-9l0 0zm-4 -31c0,-7 -4,-11 -13,-11 -3,0 -7,1 -10,1 0,4 1,11 1,20 1,0 3,0 4,0 12,0 18,-3 18,-10zm100 15c0,11 -3,21 -11,29 -7,7 -15,11 -26,11 -10,0 -18,-4 -25,-11 -7,-7 -10,-15 -10,-26 0,-12 4,-21 11,-29 7,-8 16,-12 26,-12 10,0 18,4 25,11 7,7 10,16 10,27zm-16 1c0,-8 -1,-14 -6,-19 -4,-5 -9,-7 -14,-7 -6,0 -11,2 -15,7 -3,5 -5,11 -5,19 0,8 2,14 6,19 4,5 9,8 15,8 5,0 10,-3 14,-8 4,-5 5,-11 5,-19zm83 24l-1 12c-8,2 -15,2 -20,2 -24,0 -36,-12 -36,-36 0,-12 3,-22 9,-29 7,-7 16,-11 29,-11 6,0 12,1 18,2l-2 12c-6,-1 -12,-2 -18,-2 -12,0 -19,6 -21,19 9,0 19,0 30,0l0 11c-11,0 -21,0 -30,0 1,8 3,13 6,17 4,4 9,5 17,5 5,0 11,-1 19,-2zm-304 154l-16 0c0,-12 0,-23 0,-32l-28 0c0,8 0,19 0,32l-16 0c1,-12 1,-25 1,-38 0,-14 0,-25 -1,-35l16 0c0,10 0,20 0,29l28 0c0,-8 0,-18 0,-29l16 0c-1,9 -1,21 -1,35 0,14 0,27 1,38l0 0zm80 0l-18 0c0,-2 -2,-9 -5,-21l-26 0c-4,12 -6,19 -6,21l-17 0c0,-1 5,-13 14,-36 9,-23 13,-35 13,-37l21 0c0,2 4,14 12,37 8,22 12,34 12,36l0 0zm-26 -32c-6,-19 -10,-30 -10,-31l0 0c0,1 -4,12 -10,31l20 0zm102 21c0,2 0,7 -1,16 -1,8 -2,15 -2,19l-11 0c0,-5 0,-13 0,-24 -6,-1 -14,-1 -24,-1 -9,0 -16,0 -22,1 -2,11 -3,19 -3,24l-11 0c0,-4 0,-10 0,-18 -1,-8 -1,-14 -1,-17l7 0c8,-22 16,-42 26,-62l32 0c-1,10 -1,22 -1,33 0,10 0,20 1,29l10 0 0 0zm-25 0c0,-7 0,-16 0,-26 0,-11 -1,-19 -1,-25l-9 0c-9,21 -16,38 -20,51l30 0zm51 11l-16 0c0,-11 1,-24 1,-38 0,-14 -1,-26 -1,-35l16 0c-1,9 -1,21 -1,35 0,14 0,27 1,38zm78 0l-16 0c1,-6 1,-15 1,-28 0,-5 0,-12 1,-21l-1 0c-1,3 -8,11 -19,25 -10,12 -16,20 -16,24l-12 0c1,-10 1,-21 1,-35 0,-13 0,-26 -1,-38l16 0c0,9 -1,20 -1,31 0,5 0,11 -1,18l1 0c2,-3 8,-12 20,-25 10,-12 15,-20 15,-24l12 0c0,12 0,25 0,38 0,14 0,25 0,35l0 0zm-9 -94c0,12 -7,18 -20,18 -7,0 -12,-2 -16,-6 -3,-3 -4,-7 -4,-12l12 -1c0,7 3,10 8,10 3,0 6,0 7,-2 1,-2 1,-5 1,-8l12 1 0 0zm85 94l-16 0c0,-12 1,-23 1,-32l-29 0c0,8 0,19 1,32l-16 0c0,-12 0,-25 0,-38 0,-14 0,-25 0,-35l16 0c-1,10 -1,20 -1,29l29 0c0,-8 -1,-18 -1,-29l16 0c-1,9 -1,21 -1,35 0,14 0,27 1,38zm65 -12l0 12 -49 0c1,-11 1,-24 1,-38 0,-14 0,-26 -1,-35l46 0 0 12c-12,-1 -22,-1 -31,-1 0,5 0,12 0,19 8,0 17,-1 26,-1l0 12c-9,-1 -17,-1 -26,-1 0,8 1,15 1,22 10,0 21,0 33,-1l0 0z"/>
  <path fill="#006CB5" fill-rule="nonzero" stroke="#006CB5" stroke-width="0.926324" d="M59 286l0 12c-8,0 -15,0 -22,0 0,7 0,15 0,23 0,14 0,27 1,39l-16 0c0,-12 1,-25 1,-39 0,-8 0,-16 -1,-23 -5,0 -12,0 -22,0l1 -12 58 0 0 0z"/>
  <path fill="#006CB5" fill-rule="nonzero" stroke="#006CB5" stroke-width="0.926324" d="M505 285l-1 12c-7,0 -14,-1 -21,-1 0,8 0,16 0,24 0,14 0,27 1,39l-16 0c0,-12 1,-25 1,-39 0,-8 -1,-16 -1,-24 -5,0 -12,1 -22,1l1 -12 58 0 0 0z"/>
  <path fill="#006CB5" fill-rule="nonzero" stroke="#006CB5" stroke-width="0.926324" d="M562 344l-1 13c-6,1 -11,2 -16,2 -13,0 -23,-4 -30,-11 -6,-7 -10,-16 -10,-26 0,-11 4,-20 11,-28 7,-8 17,-12 30,-12 4,0 9,1 13,2l-2 13c-5,-1 -9,-2 -13,-2 -8,0 -13,2 -17,7 -4,5 -6,11 -6,18 0,7 3,13 7,18 4,6 11,8 19,8 4,0 9,-1 15,-2l0 0zm62 -61l-1 13c-8,-1 -15,-1 -21,-1 0,7 0,15 0,23 0,14 0,27 0,39l-16 0c1,-12 1,-25 1,-39 0,-8 0,-16 0,-23 -6,0 -13,0 -22,1l1 -13 58 0 0 0zm66 52c0,15 -13,22 -37,22 -5,0 -11,0 -20,0 0,-11 1,-24 1,-39 0,-13 -1,-25 -1,-35l9 0c2,0 5,0 9,0 4,0 7,0 9,0 17,0 25,6 25,16 0,9 -4,14 -13,17l0 1c5,1 9,2 12,5 4,3 6,7 6,13zm-16 0c0,-7 -6,-11 -20,-11 -2,0 -4,0 -6,0 0,8 0,16 0,22 2,0 4,1 6,1 7,0 12,-1 15,-3 4,-1 5,-4 5,-9l0 0zm-4 -31c0,-7 -4,-10 -13,-10 -4,0 -7,0 -10,0 1,4 1,11 1,20 1,0 3,0 4,0 12,0 18,-3 18,-10zm100 15c0,11 -3,21 -10,29 -8,7 -16,11 -27,11 -10,0 -18,-3 -25,-11 -6,-6 -10,-15 -10,-26 0,-12 4,-21 11,-29 7,-7 16,-11 26,-11 10,0 18,3 25,10 7,7 10,16 10,27zm-15 1c0,-7 -2,-14 -6,-19 -4,-5 -10,-7 -15,-7 -6,0 -11,2 -14,7 -4,5 -6,12 -6,19 0,8 2,14 6,19 4,5 9,8 15,8 5,0 10,-3 14,-8 4,-5 6,-11 6,-19z"/>
  <path fill="#006CB5" fill-rule="nonzero" stroke="#006CB5" stroke-width="0.926324" d="M122 286c0,2 -2,10 -7,23 -5,12 -10,23 -14,31 -5,8 -10,14 -15,17 -4,4 -11,5 -20,5l-1 -12c6,0 12,0 15,-2 3,-1 5,-4 7,-9 0,-2 -4,-12 -13,-28 -9,-15 -14,-24 -14,-25l18 0c0,1 3,8 8,19 6,12 9,19 9,20l0 0c8,-21 12,-34 12,-39l15 0 0 0zm61 20c0,8 -4,15 -10,20 -7,4 -15,6 -25,6 -2,0 -3,0 -4,0 0,7 0,16 1,28l-16 0c0,-11 1,-24 1,-39 0,-13 -1,-25 -1,-35l10 0c1,0 4,0 8,0 4,0 7,0 10,0 7,0 13,1 18,5 5,3 8,8 8,15l0 0zm-15 3c0,-8 -5,-12 -16,-12 -3,0 -6,0 -9,0 1,8 1,15 1,25 1,0 2,0 3,0 14,0 21,-5 21,-13zm87 51l-18 0c0,-3 -2,-10 -5,-21l-26 0c-4,11 -6,18 -6,21l-17 0c0,-2 5,-14 14,-36 8,-23 13,-35 13,-38l21 0c0,2 4,15 12,37 8,23 12,35 12,37zm-26 -32c-6,-19 -10,-30 -10,-32l-1 0c0,2 -3,12 -10,32l21 0zm82 -42l-1 13c-12,-1 -22,-1 -32,-1 1,6 1,15 1,27 0,16 0,28 1,35l-16 0c0,-10 1,-23 1,-37 0,-16 -1,-29 -1,-37l47 0zm58 61l-1 13 -48 0c1,-11 1,-24 1,-39 0,-13 0,-25 -1,-35l46 0 0 13c-12,-1 -22,-1 -31,-1 0,5 0,11 0,18 8,0 17,0 26,0l0 11c-9,0 -18,0 -26,0 0,8 1,15 1,21 10,0 21,0 33,-1l0 0zm72 13l-16 0c0,-13 0,-23 0,-33l-28 0c0,9 0,19 0,33l-16 0c1,-13 1,-25 1,-39 0,-13 0,-25 -1,-35l16 0c0,11 0,21 0,30l28 0c0,-8 0,-18 0,-30l16 0c-1,10 -1,22 -1,35 0,15 0,28 1,39l0 0z"/>
 </g>
</svg>
