<?xml version="1.0" encoding="UTF-8"?>
<!DOCTYPE svg PUBLIC "-//W3C//DTD SVG 1.1//EN" "http://www.w3.org/Graphics/SVG/1.1/DTD/svg11.dtd">
<!-- Creator: CorelDRAW X7 -->
<svg xmlns="http://www.w3.org/2000/svg" xml:space="preserve" width="59.2003mm" height="29.7207mm" version="1.1" style="shape-rendering:geometricPrecision; text-rendering:geometricPrecision; image-rendering:optimizeQuality; fill-rule:evenodd; clip-rule:evenodd"
viewBox="0 0 3649 1832"
 xmlns:xlink="http://www.w3.org/1999/xlink">
 <defs>
  <style type="text/css">
   <![CDATA[
    .str0 {stroke:#006CB5;stroke-width:4.69735}
    .fil0 {fill:#006CB5;fill-rule:nonzero}
   ]]>
  </style>
 </defs>
 <g id="Слой_x0020_1">
  <metadata id="CorelCorpID_0Corel-Layer"/>
  <path class="fil0 str0" d="M1435 11l-2 62c-39,-3 -75,-5 -108,-5 -1,36 -1,77 -1,121 0,69 1,134 3,195l-80 0c2,-60 4,-126 4,-195 0,-44 -1,-84 -2,-121 -27,0 -64,2 -111,5l3 -62 294 0zm335 261c0,76 -62,114 -187,114 -21,0 -55,0 -101,-2 3,-57 4,-123 4,-195 0,-70 -1,-129 -4,-178l47 0c8,0 23,0 44,-1 21,-1 37,-1 49,-1 84,0 127,28 127,83 0,42 -22,70 -65,84l0 4c23,4 43,13 60,28 17,14 26,35 26,64zm-78 3c0,-38 -33,-57 -100,-57 -13,0 -24,1 -34,1 0,40 1,77 3,111 6,1 16,2 29,2 35,0 61,-4 78,-13 16,-8 24,-23 24,-44zm-21 -161c0,-34 -21,-51 -64,-51 -19,0 -37,2 -52,4 2,20 3,53 3,100 7,0 15,1 23,1 60,0 90,-18 90,-54zm508 77c0,58 -18,107 -54,146 -36,38 -80,58 -133,58 -51,0 -93,-18 -127,-54 -34,-35 -51,-80 -51,-135 0,-58 18,-107 54,-146 36,-38 80,-58 133,-58 51,0 93,18 127,53 34,36 51,81 51,136zm-79 8c0,-40 -10,-72 -31,-97 -20,-25 -45,-37 -75,-37 -28,0 -52,12 -72,37 -19,25 -29,57 -29,95 0,40 11,72 31,97 21,25 46,38 76,38 28,0 51,-13 71,-38 19,-25 29,-57 29,-95zm417 118l-4 65c-42,7 -76,10 -100,10 -123,0 -184,-62 -184,-186 0,-59 16,-108 48,-145 32,-37 80,-55 144,-55 29,0 60,2 91,8l-10 64c-31,-8 -60,-12 -89,-12 -62,0 -98,32 -106,96 42,0 93,-1 152,-2l0 60c-57,-2 -107,-3 -152,-3 3,39 13,68 30,86 18,19 45,28 83,28 28,0 60,-5 97,-14zm-1541 784l-82 0c2,-63 3,-118 3,-164l-144 0c0,41 1,96 3,164l-82 0c3,-63 4,-128 4,-195 0,-68 -1,-127 -4,-178l82 0c-3,54 -4,103 -4,149l146 0c0,-40 -1,-90 -4,-149l82 0c-3,49 -4,108 -4,178 0,73 1,138 4,195zm408 0l-92 0c0,-12 -9,-48 -26,-107l-133 0c-18,58 -27,94 -27,107l-86 0c0,-7 22,-68 67,-183 45,-115 67,-178 67,-190l108 0c0,11 21,73 61,187 41,114 61,176 61,186zm-133 -162c-32,-98 -49,-152 -49,-160l-4 0c0,8 -17,61 -51,160l104 0zm519 104c0,9 -2,36 -8,81 -5,44 -8,76 -8,96l-57 0c0,-24 0,-64 -1,-121 -31,-2 -72,-3 -122,-3 -42,0 -79,1 -112,3 -10,58 -16,98 -16,121l-54 0c0,-18 -1,-48 -1,-89 -1,-41 -1,-70 -1,-88l35 0c37,-108 79,-213 128,-315l163 0c-3,55 -4,112 -4,170 0,52 2,100 5,145l53 0zm-128 0c-2,-33 -3,-78 -3,-133 0,-51 -1,-92 -2,-125l-47 0c-46,105 -79,191 -100,258l152 0zm257 58l-81 0c2,-59 4,-124 4,-195 0,-70 -2,-129 -4,-178l81 0c-2,48 -4,107 -4,178 0,72 2,137 4,195zm398 0l-81 0c3,-31 4,-79 4,-143 0,-26 1,-62 3,-109l-4 0c-7,17 -39,60 -97,128 -52,63 -78,104 -78,124l-62 0c3,-50 5,-109 5,-177 0,-69 -2,-134 -5,-196l80 0c-2,49 -4,101 -4,157 0,26 -1,57 -4,95l5 0c8,-19 41,-62 99,-130 51,-60 77,-101 77,-122l62 0c-2,62 -4,127 -4,196 0,68 2,127 4,177zm-47 -477c0,59 -34,89 -102,89 -36,0 -63,-10 -81,-28 -14,-16 -22,-36 -22,-61l64 -7c0,36 13,54 39,54 18,0 29,-4 34,-14 5,-9 7,-23 7,-40l61 7zm431 477l-81 0c2,-63 3,-118 3,-164l-145 0c0,41 1,96 3,164l-81 0c2,-63 4,-128 4,-195 0,-68 -2,-127 -4,-178l81 0c-2,54 -3,103 -3,149l145 0c0,-40 -1,-90 -3,-149l81 0c-3,49 -4,108 -4,178 0,73 1,138 4,195zm329 -63l-2 63 -244 0c2,-57 3,-123 3,-195 0,-70 -1,-129 -3,-178l233 0 -4 63c-57,-3 -109,-5 -156,-5 2,27 3,58 3,94 40,0 83,-1 129,-3l0 60c-45,-2 -88,-3 -129,-3 0,39 1,75 3,109 52,0 108,-1 167,-5zm-2711 407l-2 62c-39,-3 -75,-5 -108,-5 -1,36 -1,77 -1,121 0,69 1,134 3,195l-80 0c2,-60 4,-126 4,-195 0,-44 -1,-84 -2,-121 -27,0 -64,2 -111,5l3 -62 294 0zm325 0c0,11 -12,48 -36,113 -25,65 -49,119 -72,160 -24,42 -48,71 -72,87 -25,17 -60,25 -105,25l-5 -60c34,0 60,-4 76,-11 16,-8 29,-23 39,-46 0,-13 -23,-60 -69,-141 -46,-80 -69,-123 -69,-127l91 0c0,5 14,38 42,97 28,59 42,93 42,101l3 0c39,-108 58,-174 58,-198l77 0zm308 98c0,45 -17,79 -51,101 -34,22 -76,33 -125,33 -9,0 -16,-1 -19,-1 0,36 1,83 3,142l-81 0c3,-55 4,-120 4,-195 0,-69 -1,-128 -4,-178l50 0c7,0 21,0 41,-1 20,-1 37,-1 52,-1 36,0 67,8 92,25 25,16 38,41 38,75zm-74 16c0,-41 -28,-62 -82,-62 -13,0 -28,2 -43,4 2,37 3,77 3,123 5,0 11,1 17,1 70,0 105,-22 105,-66zm441 259l-91 0c0,-12 -9,-48 -27,-107l-132 0c-18,58 -27,94 -27,107l-86 0c0,-7 22,-68 67,-183 44,-115 67,-178 67,-190l108 0c0,11 20,73 61,187 40,114 60,176 60,186zm-132 -162c-33,-98 -49,-152 -49,-160l-5 0c0,8 -17,61 -51,160l105 0zm415 -211l-2 65c-62,-3 -116,-4 -164,-4 3,30 5,76 5,137 0,79 1,138 2,175l-79 0c2,-52 3,-114 3,-185 0,-84 -1,-147 -3,-188l238 0zm294 310l-2 63 -244 0c2,-57 3,-123 3,-195 0,-70 -1,-129 -3,-178l233 0 -4 63c-57,-3 -109,-5 -156,-5 2,27 3,58 3,94 40,0 83,-1 128,-3l0 60c-44,-2 -87,-3 -128,-3 0,39 1,75 3,109 52,0 108,-1 167,-5zm365 63l-82 0c2,-63 3,-118 3,-164l-144 0c0,41 1,96 3,164l-82 0c3,-63 4,-128 4,-195 0,-68 -1,-127 -4,-178l82 0c-3,54 -4,103 -4,149l146 0c0,-40 -1,-90 -4,-149l82 0c-3,49 -4,108 -4,178 0,73 1,138 4,195zm349 -68l-4 66c-28,7 -54,10 -81,10 -65,0 -115,-18 -150,-54 -34,-36 -51,-81 -51,-132 0,-54 18,-101 55,-141 36,-39 86,-59 150,-59 23,0 45,2 66,8l-10 66c-23,-7 -44,-11 -65,-11 -39,0 -68,12 -87,37 -19,25 -28,54 -28,90 0,36 11,67 34,93 22,27 53,40 94,40 24,0 50,-4 77,-13zm313 -305l-3 62c-38,-3 -74,-5 -108,-5 0,36 0,77 0,121 0,69 1,134 3,195l-80 0c2,-60 3,-126 3,-195 0,-44 0,-84 -1,-121 -27,0 -64,2 -111,5l3 -62 294 0zm335 261c0,76 -62,114 -187,114 -22,0 -55,0 -101,-2 3,-57 4,-123 4,-195 0,-70 -1,-129 -4,-178l47 0c8,0 23,0 44,-1 21,-1 37,-1 49,-1 84,0 127,28 127,83 0,42 -22,70 -66,84l0 4c24,4 44,13 61,28 17,14 26,35 26,64zm-78 3c0,-38 -33,-57 -100,-57 -13,0 -24,0 -34,1 0,40 1,77 3,111 6,1 16,2 29,2 35,0 61,-4 78,-13 16,-8 24,-23 24,-44zm-21 -161c0,-34 -21,-51 -64,-51 -20,0 -37,2 -52,4 2,20 3,53 3,100 7,0 15,0 23,0 60,0 90,-17 90,-53zm508 77c0,58 -18,107 -54,146 -36,38 -80,58 -133,58 -51,0 -93,-18 -127,-54 -34,-35 -51,-80 -51,-135 0,-58 18,-107 54,-146 36,-38 80,-58 133,-58 51,0 93,18 127,53 34,36 51,81 51,136zm-79 8c0,-40 -10,-72 -31,-97 -20,-25 -46,-37 -75,-37 -28,0 -52,12 -72,37 -19,25 -29,57 -29,95 0,40 10,72 31,97 20,25 46,38 76,38 27,0 51,-13 71,-38 19,-25 29,-57 29,-95z"/>
 </g>
</svg>
