<?xml version="1.0" encoding="UTF-8"?>
<!DOCTYPE svg PUBLIC "-//W3C//DTD SVG 1.1//EN" "http://www.w3.org/Graphics/SVG/1.1/DTD/svg11.dtd">
<!-- Creator: CorelDRAW X7 -->
<svg xmlns="http://www.w3.org/2000/svg" xml:space="preserve" width="2480px" height="3508px" version="1.1" shape-rendering="geometricPrecision" text-rendering="geometricPrecision" image-rendering="optimizeQuality" fill-rule="evenodd" clip-rule="evenodd"
viewBox="0 0 2480 3507"
 xmlns:xlink="http://www.w3.org/1999/xlink">
 <g id="Слой_x0020_1">
  <metadata id="CorelCorpID_0Corel-Layer"/>
  <path fill="#006CB5" fill-rule="nonzero" stroke="#006CB5" stroke-width="0.899886" d="M1169 1580l0 12c-8,0 -15,-1 -21,-1 0,7 0,15 0,23 0,14 0,26 0,38l-15 0c0,-12 1,-24 1,-38 0,-8 -1,-16 -1,-23 -5,0 -12,1 -21,1l1 -12 56 0 0 0zm64 50c0,15 -12,22 -36,22 -4,0 -10,0 -19,0 0,-11 1,-24 1,-38 0,-13 -1,-24 -1,-34l9 0c1,0 4,0 8,0 4,0 7,0 10,0 16,0 24,5 24,16 0,8 -4,13 -12,16l0 1c4,0 8,2 11,5 3,3 5,7 5,12zm-15 1c0,-7 -6,-11 -19,-11 -2,0 -5,0 -7,0 0,8 1,15 1,21 1,1 3,1 6,1 6,0 11,-1 15,-3 3,-1 4,-4 4,-8l0 0zm-4 -31c0,-6 -4,-10 -12,-10 -4,0 -7,1 -10,1 0,4 0,10 0,19 2,0 3,0 5,0 11,0 17,-3 17,-10zm97 15c0,11 -3,20 -10,28 -7,7 -15,11 -25,11 -10,0 -18,-4 -25,-10 -6,-7 -9,-16 -9,-26 0,-11 3,-21 10,-28 7,-8 15,-11 25,-11 10,0 18,3 25,10 6,7 9,15 9,26zm-15 1c0,-7 -2,-13 -6,-18 -3,-5 -8,-7 -14,-7 -5,0 -10,2 -14,7 -3,5 -5,11 -5,18 0,8 2,14 6,19 4,4 8,7 14,7 6,0 10,-3 14,-7 3,-5 5,-11 5,-19zm80 23l-1 12c-8,2 -14,2 -19,2 -23,0 -35,-12 -35,-35 0,-12 3,-21 9,-28 6,-7 16,-11 28,-11 5,0 11,1 17,2l-2 12c-6,-1 -11,-2 -17,-2 -12,0 -18,6 -20,18 8,0 18,0 29,0l0 11c-11,0 -20,0 -29,0 1,7 2,13 6,16 3,4 8,6 16,6 5,0 11,-1 18,-3zm-295 150l-16 0c1,-12 1,-22 1,-31l-28 0c0,8 0,18 1,31l-16 0c1,-12 1,-24 1,-37 0,-13 0,-25 -1,-34l16 0c-1,10 -1,19 -1,28l28 0c0,-7 0,-17 -1,-28l16 0c-1,9 -1,20 -1,34 0,14 0,26 1,37l0 0zm78 0l-17 0c0,-2 -2,-9 -5,-20l-26 0c-3,11 -5,18 -5,20l-17 0c0,-1 5,-13 13,-35 9,-22 13,-34 13,-36l21 0c0,2 4,14 11,36 8,21 12,33 12,35l0 0zm-25 -31c-6,-19 -10,-29 -10,-31l0 0c0,2 -4,12 -10,31l20 0zm99 20c0,2 0,7 -1,16 -1,8 -2,14 -2,18l-11 0c0,-5 0,-12 0,-23 -6,-1 -14,-1 -23,-1 -8,0 -16,0 -22,1 -2,11 -3,19 -3,23l-10 0c0,-3 -1,-9 -1,-17 0,-8 0,-14 0,-17l7 0c7,-21 15,-41 25,-60l31 0c-1,10 -1,21 -1,32 0,10 0,19 1,28l10 0 0 0zm-24 0c-1,-6 -1,-15 -1,-25 0,-10 0,-18 0,-24l-9 0c-9,20 -16,36 -20,49l30 0zm49 11l-16 0c1,-11 1,-24 1,-37 0,-14 0,-25 -1,-34l16 0c-1,9 -1,20 -1,34 0,14 0,26 1,37zm76 0l-15 0c0,-6 0,-15 0,-27 0,-5 1,-12 1,-21l-1 0c-1,3 -7,11 -18,24 -10,12 -15,20 -15,24l-12 0c0,-9 1,-21 1,-34 0,-13 -1,-25 -1,-37l15 0c0,9 -1,19 -1,30 0,5 0,11 0,18l0 0c2,-4 8,-12 19,-25 10,-11 15,-19 15,-23l12 0c0,12 -1,24 -1,37 0,13 1,25 1,34l0 0zm-9 -91c0,11 -6,17 -19,17 -7,0 -13,-2 -16,-6 -3,-3 -4,-6 -4,-11l12 -2c0,7 3,11 8,11 3,0 5,-1 6,-3 1,-2 1,-4 1,-8l12 2 0 0zm83 91l-16 0c1,-12 1,-22 1,-31l-28 0c0,8 0,18 0,31l-15 0c0,-12 1,-24 1,-37 0,-13 -1,-25 -1,-34l15 0c0,10 0,19 0,28l28 0c0,-7 0,-17 -1,-28l16 0c-1,9 -1,20 -1,34 0,14 0,26 1,37zm63 -12l-1 12 -46 0c0,-11 0,-23 0,-37 0,-14 0,-25 0,-34l44 0 -1 12c-11,-1 -20,-1 -29,-1 0,5 0,11 0,18 8,0 16,0 25,-1l0 12c-9,-1 -17,-1 -25,-1 0,8 0,15 1,21 10,0 20,0 32,-1l0 0z"/>
  <path fill="#006CB5" fill-rule="nonzero" stroke="#006CB5" stroke-width="0.899886" d="M934 1856l-1 12c-7,0 -14,-1 -21,-1 0,7 0,15 0,23 0,14 0,26 1,38l-15 0c0,-12 0,-24 0,-38 0,-8 0,-16 0,-23 -5,0 -12,1 -21,1l0 -12 57 0 0 0z"/>
  <path fill="#006CB5" fill-rule="nonzero" stroke="#006CB5" stroke-width="0.899886" d="M1367 1855l-1 12c-7,0 -14,-1 -20,-1 -1,7 -1,15 -1,23 0,14 1,26 1,38l-15 0c0,-12 0,-24 0,-38 0,-8 0,-16 0,-23 -5,0 -12,1 -21,1l0 -12 57 0 0 0z"/>
  <path fill="#006CB5" fill-rule="nonzero" stroke="#006CB5" stroke-width="0.899886" d="M1422 1912l-1 13c-5,1 -10,1 -15,1 -13,0 -22,-3 -29,-10 -7,-7 -10,-15 -10,-25 0,-11 4,-20 11,-27 7,-8 16,-12 28,-12 5,0 9,1 13,2l-2 13c-4,-2 -8,-2 -12,-2 -8,0 -13,2 -17,7 -4,4 -5,10 -5,17 0,7 2,13 6,18 4,5 10,7 18,7 5,0 10,0 15,-2l0 0zm60 -59l-1 12c-7,0 -14,-1 -20,-1 0,7 0,15 0,24 0,13 0,25 0,37l-15 0c0,-12 0,-24 0,-37 0,-9 0,-17 0,-24 -5,0 -12,1 -21,1l1 -12 56 0 0 0zm64 50c0,15 -12,22 -36,22 -4,0 -10,0 -19,0 0,-11 1,-24 1,-37 0,-14 -1,-25 -1,-35l9 0c1,0 4,0 8,0 4,0 7,0 10,0 16,0 24,5 24,16 0,8 -4,13 -13,16l0 1c5,1 9,2 12,5 3,3 5,7 5,12zm-15 1c0,-7 -6,-11 -19,-11 -3,0 -5,0 -7,0 0,8 1,15 1,22 1,0 3,0 6,0 6,0 11,-1 15,-3 3,-1 4,-4 4,-8l0 0zm-4 -31c0,-6 -4,-10 -12,-10 -4,0 -7,1 -10,1 0,4 0,10 0,19 2,0 3,0 5,0 11,0 17,-3 17,-10zm97 15c0,11 -3,20 -10,28 -7,7 -15,11 -25,11 -10,0 -18,-3 -25,-10 -6,-7 -9,-16 -9,-26 0,-11 3,-21 10,-28 7,-7 15,-11 25,-11 10,0 18,3 25,10 6,7 9,15 9,26zm-15 1c0,-7 -2,-13 -6,-18 -3,-5 -8,-7 -14,-7 -5,0 -10,2 -14,7 -3,5 -5,11 -5,18 0,8 2,14 6,19 3,4 8,7 14,7 5,0 10,-3 14,-7 3,-5 5,-11 5,-19z"/>
  <path fill="#006CB5" fill-rule="nonzero" stroke="#006CB5" stroke-width="0.899886" d="M995 1856c0,2 -3,9 -7,22 -5,12 -10,23 -14,31 -5,8 -9,13 -14,16 -5,3 -11,5 -20,5l-1 -11c7,0 12,-1 15,-3 3,-1 5,-4 7,-8 0,-3 -4,-12 -13,-27 -9,-16 -13,-24 -13,-25l17 0c0,1 3,8 8,19 6,11 8,18 8,19l1 0c7,-21 11,-33 11,-38l15 0 0 0zm59 19c0,9 -4,15 -10,19 -7,5 -15,7 -24,7 -2,0 -3,0 -4,0 0,6 0,15 1,27l-16 0c1,-11 1,-23 1,-38 0,-13 0,-24 -1,-34l10 0c1,0 4,0 8,0 4,0 7,0 10,0 7,0 13,1 17,5 5,3 8,8 8,14l0 0zm-15 3c0,-8 -5,-12 -15,-12 -3,0 -6,1 -8,1 0,7 0,15 0,24 1,0 2,0 3,0 14,0 20,-4 20,-13zm85 50l-17 0c0,-3 -2,-9 -6,-21l-25 0c-3,11 -5,18 -5,21l-17 0c0,-2 5,-13 13,-35 9,-22 13,-34 13,-37l21 0c0,2 4,14 11,36 8,22 12,34 12,36zm-25 -31c-7,-19 -10,-29 -10,-31l-1 0c0,2 -3,12 -9,31l20 0zm79 -41l0 13c-12,-1 -22,-1 -32,-1 1,6 1,14 1,26 0,15 1,27 1,34l-15 0c0,-10 0,-22 0,-36 0,-16 0,-28 0,-36l45 0zm57 60l-1 12 -47 0c1,-11 1,-24 1,-38 0,-13 0,-24 -1,-34l45 0 -1 12c-11,0 -21,-1 -30,-1 1,6 1,11 1,18 8,0 16,0 24,0l0 11c-8,0 -16,0 -24,0 0,7 0,14 1,21 9,0 20,-1 32,-1l0 0zm69 12l-15 0c0,-12 0,-23 0,-32l-27 0c0,8 0,19 0,32l-15 0c0,-12 0,-25 0,-38 0,-13 0,-24 0,-34l15 0c0,11 0,20 0,29l28 0c0,-8 -1,-17 -1,-29l15 0c0,10 0,21 0,34 0,14 0,27 0,38l0 0z"/>
 </g>
</svg>
