<svg id="Layer_1" data-name="Layer 1" xmlns="http://www.w3.org/2000/svg" viewBox="0 0 191.97 52.06"><defs><style>.cls-1{fill:#fff;}.cls-2,.cls-65{fill:#1b4e9b;}.cls-10,.cls-11,.cls-12,.cls-13,.cls-14,.cls-15,.cls-16,.cls-17,.cls-18,.cls-19,.cls-2,.cls-20,.cls-21,.cls-22,.cls-23,.cls-24,.cls-25,.cls-26,.cls-27,.cls-28,.cls-29,.cls-3,.cls-30,.cls-31,.cls-32,.cls-33,.cls-34,.cls-35,.cls-36,.cls-37,.cls-38,.cls-39,.cls-4,.cls-40,.cls-41,.cls-42,.cls-43,.cls-44,.cls-45,.cls-46,.cls-47,.cls-48,.cls-49,.cls-5,.cls-50,.cls-51,.cls-52,.cls-53,.cls-54,.cls-55,.cls-56,.cls-57,.cls-58,.cls-59,.cls-6,.cls-60,.cls-61,.cls-62,.cls-63,.cls-64,.cls-7,.cls-8,.cls-9{fill-rule:evenodd;}.cls-3{fill:#e88906;}.cls-4{fill:#2a517d;}.cls-5{fill:#ea8759;}.cls-6{fill:#e56d0d;}.cls-7{fill:#fee69b;}.cls-8{fill:#eb6c3c;}.cls-9{fill:#f8f3e6;}.cls-10{fill:#e24c23;}.cls-11{fill:#c7d5e8;}.cls-12{fill:#9cc2e5;}.cls-13{fill:#88b2da;}.cls-14{fill:#243f5e;}.cls-15{fill:#1685ba;}.cls-16{fill:#b8c6d8;}.cls-17{fill:#579ac8;}.cls-18{fill:#acb0b8;}.cls-19{fill:#f6eaca;}.cls-20{fill:#036997;}.cls-21{fill:#fcc705;}.cls-22{fill:#fdedbc;}.cls-23{fill:#f6b010;}.cls-24{fill:#3793c8;}.cls-25{fill:#feebb3;}.cls-26{fill:#fef1cb;}.cls-27{fill:#f3cb49;}.cls-28{fill:#0e5272;}.cls-29{fill:#e8e6d6;}.cls-30{fill:#67a7d7;}.cls-31{fill:#b42f15;}.cls-32{fill:#fede7b;}.cls-33{fill:#055b84;}.cls-34{fill:#e17c2a;}.cls-35{fill:#eb971d;}.cls-36{fill:#d33c19;}.cls-37{fill:#c45b2a;}.cls-38{fill:#fad762;}.cls-39{fill:#fed963;}.cls-40{fill:#a94728;}.cls-41{fill:#e3dcce;}.cls-42{fill:#fed649;}.cls-43{fill:#fdd327;}.cls-44{fill:#d26c2a;}.cls-45{fill:#699dc5;}.cls-46{fill:#2c7ba6;}.cls-47{fill:#69972e;}.cls-48{fill:#c9d30c;}.cls-49{fill:#509131;}.cls-50{fill:#932b16;}.cls-51{fill:#e7e9b1;}.cls-52{fill:#c9c3bc;}.cls-53{fill:#d6db4f;}.cls-54{fill:#8cb024;}.cls-55{fill:#b2c709;}.cls-56{fill:#dfe482;}.cls-57{fill:#1d672e;}.cls-58{fill:#276f97;}.cls-59{fill:#4d8db7;}.cls-60{fill:#267531;}.cls-61{fill:#d8df63;}.cls-62{fill:#9aba1b;}.cls-63{fill:#e3e592;}.cls-64{fill:#d1d830;}</style></defs><title>lo3</title><g id="Слой_1"><g id="_749436128" data-name=" 749436128"><path class="cls-1" d="M98,13.89a11.39,11.39,0,0,1,5,1.53c0-1-.33-1.21,1.22-1.21.54,0,1.31,0,2.41,0V29.31l-3.6,0-.25-1.08a7.55,7.55,0,0,1-4.51,1.51,7.93,7.93,0,0,1-7.85-8.29,7.72,7.72,0,0,1,4.22-6.66A7.86,7.86,0,0,1,98,13.89m.42,12.47a5.06,5.06,0,0,0,1.72-.31c4.64-1.57,3.18-8.94-1.39-8.94a4.89,4.89,0,0,0-1.73.33c-4.6,1.62-3.21,8.92,1.4,8.92M98,12.89a8.77,8.77,0,0,0-8.61,8.48A9,9,0,0,0,91.88,28a8.89,8.89,0,0,0,6.33,2.71,8.37,8.37,0,0,0,3.89-1,1,1,0,0,0,.86.52l3.6,0h0a1,1,0,0,0,.7-.28,1,1,0,0,0,.3-.72v-15a1,1,0,0,0-1-1l-1,0-1.43,0a2.39,2.39,0,0,0-1.86.49,1.81,1.81,0,0,0-.18.23,10,10,0,0,0-4.15-1Zm.42,12.47a3.35,3.35,0,0,1-3.17-3,3.38,3.38,0,0,1,2.1-4,4.07,4.07,0,0,1,1.4-.27h0a3.38,3.38,0,0,1,3.17,3.1,3.33,3.33,0,0,1-2.1,3.9,4.32,4.32,0,0,1-1.4.25Z" transform="translate(0)"/><g id="_1" data-name=" 1"><path class="cls-2" d="M98.21,30.19a8.36,8.36,0,0,1-6-2.56,8.48,8.48,0,0,1-2.38-6.24,8.25,8.25,0,0,1,8.11-8,10.24,10.24,0,0,1,4.46,1.24.92.92,0,0,1,.23-.58c.27-.29.68-.34,1.5-.34l1.42,0,1,0a.51.51,0,0,1,.49.5V29.31a.48.48,0,0,1-.15.36.5.5,0,0,1-.35.14l-3.61,0a.51.51,0,0,1-.47-.39L102.4,29a8,8,0,0,1-4.19,1.19Zm.51-12.58a4.48,4.48,0,0,0-1.56.3,3.86,3.86,0,0,0-2.43,4.51,3.82,3.82,0,0,0,3.66,3.44,4.63,4.63,0,0,0,1.55-.28,3.81,3.81,0,0,0,2.44-4.45A3.91,3.91,0,0,0,98.72,17.61Z" transform="translate(0)"/><path class="cls-1" d="M98,13.89a11.39,11.39,0,0,1,5,1.53c0-1-.33-1.21,1.22-1.21.54,0,1.31,0,2.41,0V29.31l-3.6,0-.25-1.08a7.55,7.55,0,0,1-4.51,1.51,7.93,7.93,0,0,1-7.85-8.29,7.72,7.72,0,0,1,4.22-6.66A7.86,7.86,0,0,1,98,13.89m.42,12.47a5.06,5.06,0,0,0,1.72-.31c4.64-1.57,3.18-8.94-1.39-8.94a4.89,4.89,0,0,0-1.73.33c-4.6,1.62-3.21,8.92,1.4,8.92M98,12.89a8.77,8.77,0,0,0-8.61,8.48A9,9,0,0,0,91.88,28a8.89,8.89,0,0,0,6.33,2.71,8.37,8.37,0,0,0,3.89-1,1,1,0,0,0,.86.52l3.6,0h0a1,1,0,0,0,.7-.28,1,1,0,0,0,.3-.72v-15a1,1,0,0,0-1-1l-1,0-1.43,0a2.39,2.39,0,0,0-1.86.49,1.81,1.81,0,0,0-.18.23,10,10,0,0,0-4.15-1Zm.42,12.47a3.35,3.35,0,0,1-3.17-3,3.38,3.38,0,0,1,2.1-4,4.07,4.07,0,0,1,1.4-.27h0a3.38,3.38,0,0,1,3.17,3.1,3.33,3.33,0,0,1-2.1,3.9,4.32,4.32,0,0,1-1.4.25Z" transform="translate(0)"/></g></g><g id="_749455360" data-name=" 749455360"><path class="cls-1" d="M55.29,10.1c2.85,0,5.73,1,6.8,2.74l-1.61,2.72c-1.2-.42-1.62-1.21-3.24-1.58a6.33,6.33,0,0,0-1.73-.23,5.53,5.53,0,0,0-2.52.57,6.17,6.17,0,0,0-3.09,5.89,5.79,5.79,0,0,0,4,5.42,6.82,6.82,0,0,0,2,.33c2.16,0,3.48-1.28,5.06-2.06l1.27,3.26a11.31,11.31,0,0,1-7,2.47,9.47,9.47,0,0,1-9.65-10.18,9.45,9.45,0,0,1,5.81-8.65,10.39,10.39,0,0,1,3.86-.7m0-1a11.2,11.2,0,0,0-4.24.78,10.37,10.37,0,0,0-6.43,9.54A10.49,10.49,0,0,0,55.27,30.63,12.33,12.33,0,0,0,62.85,28a1,1,0,0,0,.31-1.16l-1.27-3.26a1,1,0,0,0-.57-.56A.92.92,0,0,0,61,22.9a1,1,0,0,0-.44.1,15.14,15.14,0,0,0-1.32.75A6.1,6.1,0,0,1,55.9,25a5.42,5.42,0,0,1-1.7-.29,4.81,4.81,0,0,1-3.3-4.53,5.16,5.16,0,0,1,2.57-4.94,4.48,4.48,0,0,1,2-.45,5.54,5.54,0,0,1,1.47.19,4.34,4.34,0,0,1,1.7.79,6.56,6.56,0,0,0,1.46.78,1,1,0,0,0,.34,0,1,1,0,0,0,.86-.49L63,13.35a1,1,0,0,0,0-1c-1.2-2-4.2-3.22-7.65-3.22Z" transform="translate(0)"/><g id="_1_0" data-name=" 1 0"><path class="cls-2" d="M55.27,30.13a10,10,0,0,1-10.15-10.7,9.88,9.88,0,0,1,6.12-9.09,10.79,10.79,0,0,1,4-.74c2.69,0,6,.92,7.23,3a.51.51,0,0,1,0,.52l-1.61,2.72a.52.52,0,0,1-.43.24.47.47,0,0,1-.17,0A5.51,5.51,0,0,1,59,15.31a5,5,0,0,0-1.83-.85,6.37,6.37,0,0,0-1.62-.21,5,5,0,0,0-2.29.51,5.71,5.71,0,0,0-2.82,5.42,5.3,5.3,0,0,0,3.64,5,6.18,6.18,0,0,0,1.86.31,6.59,6.59,0,0,0,3.56-1.28c.42-.26.84-.51,1.28-.73A.54.54,0,0,1,61,23.4a.57.57,0,0,1,.18,0,.5.5,0,0,1,.28.29L62.7,27a.48.48,0,0,1-.16.57,11.77,11.77,0,0,1-7.27,2.58Z" transform="translate(0)"/><path class="cls-1" d="M55.29,10.1c2.85,0,5.73,1,6.8,2.74l-1.61,2.72c-1.2-.42-1.62-1.21-3.24-1.58a6.33,6.33,0,0,0-1.73-.23,5.53,5.53,0,0,0-2.52.57,6.17,6.17,0,0,0-3.09,5.89,5.79,5.79,0,0,0,4,5.42,6.82,6.82,0,0,0,2,.33c2.16,0,3.48-1.28,5.06-2.06l1.27,3.26a11.31,11.31,0,0,1-7,2.47,9.47,9.47,0,0,1-9.65-10.18,9.45,9.45,0,0,1,5.81-8.65,10.39,10.39,0,0,1,3.86-.7m0-1a11.2,11.2,0,0,0-4.24.78,10.37,10.37,0,0,0-6.43,9.54A10.49,10.49,0,0,0,55.27,30.63,12.33,12.33,0,0,0,62.85,28a1,1,0,0,0,.31-1.16l-1.27-3.26a1,1,0,0,0-.57-.56A.92.92,0,0,0,61,22.9a1,1,0,0,0-.44.1,15.14,15.14,0,0,0-1.32.75A6.1,6.1,0,0,1,55.9,25a5.42,5.42,0,0,1-1.7-.29,4.81,4.81,0,0,1-3.3-4.53,5.16,5.16,0,0,1,2.57-4.94,4.48,4.48,0,0,1,2-.45,5.54,5.54,0,0,1,1.47.19,4.34,4.34,0,0,1,1.7.79,6.56,6.56,0,0,0,1.46.78,1,1,0,0,0,.34,0,1,1,0,0,0,.86-.49L63,13.35a1,1,0,0,0,0-1c-1.2-2-4.2-3.22-7.65-3.22Z" transform="translate(0)"/></g></g><g id="_749443648" data-name=" 749443648"><path class="cls-1" d="M71.1,14a7.83,7.83,0,0,1,7.8,5.84,7.73,7.73,0,0,1-6.06,9.61,11.15,11.15,0,0,1-2.16.22c-9.37,0-11.24-13.65-1.33-15.5A9.69,9.69,0,0,1,71.1,14m-.24,12.41a4.87,4.87,0,0,0,.84-.08,4.49,4.49,0,0,0,3.6-5.1,4.31,4.31,0,0,0-4.37-4.05c-2.35,0-4.7,1.8-4.33,5.38a4.3,4.3,0,0,0,4.26,3.85M71.1,13a10.5,10.5,0,0,0-1.93.18c-5.61,1.05-7.76,5.47-7.4,9.38a8.7,8.7,0,0,0,8.91,8.11A12,12,0,0,0,73,30.41a9,9,0,0,0,5.79-3.91A8.83,8.83,0,0,0,71.1,13Zm-.24,12.41a3.3,3.3,0,0,1-3.26-2.94,4,4,0,0,1,.85-3.23,3.36,3.36,0,0,1,2.48-1.06,3.31,3.31,0,0,1,3.38,3.16,3.5,3.5,0,0,1-2.76,4,3.58,3.58,0,0,1-.69.07Z" transform="translate(0)"/><g id="_1_1" data-name=" 1 1"><path class="cls-2" d="M70.68,30.15a8.21,8.21,0,0,1-8.41-7.65,8.05,8.05,0,0,1,7-8.85,10.41,10.41,0,0,1,1.84-.17,8.35,8.35,0,0,1,8.29,6.22,8.25,8.25,0,0,1-1,6.53,8.48,8.48,0,0,1-5.47,3.69,11.69,11.69,0,0,1-2.25.23Zm.25-12.49a3.82,3.82,0,0,0-2.85,1.23,4.53,4.53,0,0,0-1,3.6,3.8,3.8,0,0,0,4.51,3.33,4,4,0,0,0,3.2-4.56A3.83,3.83,0,0,0,70.93,17.66Z" transform="translate(0)"/><path class="cls-1" d="M71.1,14a7.83,7.83,0,0,1,7.8,5.84,7.73,7.73,0,0,1-6.06,9.61,11.15,11.15,0,0,1-2.16.22c-9.37,0-11.24-13.65-1.33-15.5A9.69,9.69,0,0,1,71.1,14m-.24,12.41a4.87,4.87,0,0,0,.84-.08,4.49,4.49,0,0,0,3.6-5.1,4.31,4.31,0,0,0-4.37-4.05c-2.35,0-4.7,1.8-4.33,5.38a4.3,4.3,0,0,0,4.26,3.85M71.1,13a10.5,10.5,0,0,0-1.93.18c-5.61,1.05-7.76,5.47-7.4,9.38a8.7,8.7,0,0,0,8.91,8.11A12,12,0,0,0,73,30.41a9,9,0,0,0,5.79-3.91A8.83,8.83,0,0,0,71.1,13Zm-.24,12.41a3.3,3.3,0,0,1-3.26-2.94,4,4,0,0,1,.85-3.23,3.36,3.36,0,0,1,2.48-1.06,3.31,3.31,0,0,1,3.38,3.16,3.5,3.5,0,0,1-2.76,4,3.58,3.58,0,0,1-.69.07Z" transform="translate(0)"/></g></g><path class="cls-3" d="M14.69,7H17L30.65,7l3.57,0C33.09,4.62,26-.06,21.32.34c-1.16.6,0,.2-.85.65-.14.06-1.07.26-1.3.31-1.79.43-.77.83-2.21,1.19-.12,3.07-.34.49-.6,2.44-1,0-.68,0-1.36.34,0,1.05-.11.66.26,1.36-1.14,0-.09,0-.57.37Z" transform="translate(0)"/><g id="_749442656" data-name=" 749442656"><path class="cls-1" d="M113.21,9.24a91,91,0,0,1,.05,9.64c0,6.27-.62,6.69,2,7.4.09,1,.37,2.89-.39,3.12a4,4,0,0,1-1.15.16c-2,0-4.21-1.5-4.21-5.63,0-4.43-.34-10.49.06-14.69h3.6m0-1h-3.6a1,1,0,0,0-1,.91,108.42,108.42,0,0,0-.13,10.92c0,1.36.06,2.67.07,3.86,0,4.89,2.81,6.63,5.21,6.63a5.36,5.36,0,0,0,1.43-.2c1.47-.44,1.28-2.38,1.15-3.79l0-.37a1,1,0,0,0-.74-.89c-1-.27-1.16-.41-1.22-.56a10.68,10.68,0,0,1-.12-2.91c0-.81,0-1.78,0-3,0-.83,0-1.78,0-2.78a49.87,49.87,0,0,0-.11-7,1,1,0,0,0-1-.88Z" transform="translate(0)"/><g id="_1_2" data-name=" 1 2"><path class="cls-2" d="M113.76,30.06c-2.17,0-4.71-1.6-4.71-6.13,0-1.19,0-2.51-.07-3.88a107.18,107.18,0,0,1,.13-10.86.5.5,0,0,1,.5-.45h3.6a.5.5,0,0,1,.49.44,50.27,50.27,0,0,1,.12,6.91c0,1-.06,1.95-.06,2.79,0,1.17,0,2.14,0,2.95-.07,3.49-.07,3.49,1.71,4a.48.48,0,0,1,.37.44l0,.38c.12,1.31.28,2.94-.79,3.26a4.67,4.67,0,0,1-1.29.18Z" transform="translate(0)"/><path class="cls-1" d="M113.21,9.24a91,91,0,0,1,.05,9.64c0,6.27-.62,6.69,2,7.4.09,1,.37,2.89-.39,3.12a4,4,0,0,1-1.15.16c-2,0-4.21-1.5-4.21-5.63,0-4.43-.34-10.49.06-14.69h3.6m0-1h-3.6a1,1,0,0,0-1,.91,108.42,108.42,0,0,0-.13,10.92c0,1.36.06,2.67.07,3.86,0,4.89,2.81,6.63,5.21,6.63a5.36,5.36,0,0,0,1.43-.2c1.47-.44,1.28-2.38,1.15-3.79l0-.37a1,1,0,0,0-.74-.89c-1-.27-1.16-.41-1.22-.56a10.68,10.68,0,0,1-.12-2.91c0-.81,0-1.78,0-3,0-.83,0-1.78,0-2.78a49.87,49.87,0,0,0-.11-7,1,1,0,0,0-1-.88Z" transform="translate(0)"/></g></g><g id="_749442944" data-name=" 749442944"><path class="cls-1" d="M89.76,14.14H90l0,3.68h-.29c-6.09,0-5,6.21-5,11.48h-3.8L81,14.18l3.54.08.06,3.06A12.2,12.2,0,0,1,86.53,15a5.18,5.18,0,0,1,3.23-.89m0-1h0a6.22,6.22,0,0,0-3.82,1.08,3.65,3.65,0,0,0-.36.31v-.29a1,1,0,0,0-1-1l-3.55-.08h0a1,1,0,0,0-.7.28,1,1,0,0,0-.3.71l-.09,15.14a1,1,0,0,0,.3.71,1,1,0,0,0,.7.29h3.8a1,1,0,0,0,1-1c0-.71,0-1.43,0-2.16-.08-2.94-.16-6,1.2-7.38a3.74,3.74,0,0,1,2.83-.94H90a1,1,0,0,0,.7-.28,1,1,0,0,0,.3-.73l0-3.68a1,1,0,0,0-1-1Z" transform="translate(0)"/><g id="_1_3" data-name=" 1 3"><path class="cls-2" d="M80.94,29.81a.5.5,0,0,1-.35-.14.55.55,0,0,1-.15-.36l.09-15.14a.47.47,0,0,1,.15-.35.51.51,0,0,1,.35-.15l3.56.09a.5.5,0,0,1,.48.49l0,1.57a5.82,5.82,0,0,1,1.12-1.19,5.69,5.69,0,0,1,3.54-1H90a.49.49,0,0,1,.49.49l0,3.69a.55.55,0,0,1-.15.36.52.52,0,0,1-.35.14h-.29a4.21,4.21,0,0,0-3.19,1.09C85,21,85.12,24.12,85.2,27.17c0,.72,0,1.44,0,2.14a.5.5,0,0,1-.5.5Z" transform="translate(0)"/><path class="cls-1" d="M89.76,14.14H90l0,3.68h-.29c-6.09,0-5,6.21-5,11.48h-3.8L81,14.18l3.54.08.06,3.06A12.2,12.2,0,0,1,86.53,15a5.18,5.18,0,0,1,3.23-.89m0-1h0a6.22,6.22,0,0,0-3.82,1.08,3.65,3.65,0,0,0-.36.31v-.29a1,1,0,0,0-1-1l-3.55-.08h0a1,1,0,0,0-.7.28,1,1,0,0,0-.3.71l-.09,15.14a1,1,0,0,0,.3.71,1,1,0,0,0,.7.29h3.8a1,1,0,0,0,1-1c0-.71,0-1.43,0-2.16-.08-2.94-.16-6,1.2-7.38a3.74,3.74,0,0,1,2.83-.94H90a1,1,0,0,0,.7-.28,1,1,0,0,0,.3-.73l0-3.68a1,1,0,0,0-1-1Z" transform="translate(0)"/></g></g><g id="_749443296" data-name=" 749443296"><path class="cls-1" d="M147.31,14a7.43,7.43,0,0,1,2.92.59,9.31,9.31,0,0,1,3.49,2.69l0-3.14,1.27.11,0,14.94-1.33.08V26.56l-1.84,1.65a6.76,6.76,0,0,1-2,1.05,8.68,8.68,0,0,1-2.57.38,8.57,8.57,0,0,1-3-.52,7.69,7.69,0,0,1-4.87-7.72A7.77,7.77,0,0,1,147.31,14m-.2,14.42a7.41,7.41,0,0,0,2-.28,6.38,6.38,0,0,0,4.45-8,6.34,6.34,0,0,0-6.06-5,6.45,6.45,0,0,0-1.76.25c-7.62,2.16-5.44,13,1.41,13m.2-15.42v0A8.82,8.82,0,0,0,144,30a9.47,9.47,0,0,0,3.34.6,9.68,9.68,0,0,0,2.87-.43A7.75,7.75,0,0,0,152.52,29l.2-.18v.51a1,1,0,0,0,1,1h.06l1.33-.08a1,1,0,0,0,.94-1l0-14.94a1,1,0,0,0-.91-1l-1.27-.11h-.09a1,1,0,0,0-1,1V15a7.83,7.83,0,0,0-2.13-1.26,8.38,8.38,0,0,0-3.3-.66Zm-.2,14.42A5.35,5.35,0,0,1,142,22.57a5.35,5.35,0,0,1,4-6.1,5.47,5.47,0,0,1,1.49-.21,5.38,5.38,0,0,1,5.09,4.18,5.42,5.42,0,0,1-3.74,6.77,6.14,6.14,0,0,1-1.7.25Z" transform="translate(0)"/><g id="_1_4" data-name=" 1 4"><path class="cls-2" d="M147.32,30.13a8.93,8.93,0,0,1-3.14-.55,8.32,8.32,0,0,1,3.13-16,7.87,7.87,0,0,1,3.12.63,7.74,7.74,0,0,1,2.8,1.93l0-1.93a.52.52,0,0,1,.16-.37.51.51,0,0,1,.34-.13l1.32.12a.5.5,0,0,1,.45.5l0,14.94a.5.5,0,0,1-.47.5l-1.36.08a.47.47,0,0,1-.34-.13.52.52,0,0,1-.16-.37V27.68l-1,.9a7.07,7.07,0,0,1-2.15,1.15,9.22,9.22,0,0,1-2.74.4Zm.14-14.37a6.17,6.17,0,0,0-1.63.23,5.81,5.81,0,0,0-4.37,6.64A5.83,5.83,0,0,0,147.11,28a7.09,7.09,0,0,0,1.83-.26A5.9,5.9,0,0,0,153,20.33,5.87,5.87,0,0,0,147.46,15.76Z" transform="translate(0)"/><path class="cls-1" d="M147.31,14a7.43,7.43,0,0,1,2.92.59,9.31,9.31,0,0,1,3.49,2.69l0-3.14,1.27.11,0,14.94-1.33.08V26.56l-1.84,1.65a6.76,6.76,0,0,1-2,1.05,8.68,8.68,0,0,1-2.57.38,8.57,8.57,0,0,1-3-.52,7.69,7.69,0,0,1-4.87-7.72A7.77,7.77,0,0,1,147.31,14m-.2,14.42a7.41,7.41,0,0,0,2-.28,6.38,6.38,0,0,0,4.45-8,6.34,6.34,0,0,0-6.06-5,6.45,6.45,0,0,0-1.76.25c-7.62,2.16-5.44,13,1.41,13m.2-15.42v0A8.82,8.82,0,0,0,144,30a9.47,9.47,0,0,0,3.34.6,9.68,9.68,0,0,0,2.87-.43A7.75,7.75,0,0,0,152.52,29l.2-.18v.51a1,1,0,0,0,1,1h.06l1.33-.08a1,1,0,0,0,.94-1l0-14.94a1,1,0,0,0-.91-1l-1.27-.11h-.09a1,1,0,0,0-1,1V15a7.83,7.83,0,0,0-2.13-1.26,8.38,8.38,0,0,0-3.3-.66Zm-.2,14.42A5.35,5.35,0,0,1,142,22.57a5.35,5.35,0,0,1,4-6.1,5.47,5.47,0,0,1,1.49-.21,5.38,5.38,0,0,1,5.09,4.18,5.42,5.42,0,0,1-3.74,6.77,6.14,6.14,0,0,1-1.7.25Z" transform="translate(0)"/></g></g><g id="_749438432" data-name=" 749438432"><path class="cls-1" d="M178,13.8c3.59,0,7,2.59,6.58,8l-12.5,0c-.46,3.93,2.91,6.61,6.3,6.61a6,6,0,0,0,1.78-.26c1.61-.48,2-1.19,3.06-1.73a6.05,6.05,0,0,1,.51,1.22,9.71,9.71,0,0,1-5.57,2,7.48,7.48,0,0,1-4.32-1.42A8.13,8.13,0,0,1,171,18.71a7.34,7.34,0,0,1,7-4.91m-5.92,6.73h11a5.15,5.15,0,0,0-5.29-5.48h-.21a5.83,5.83,0,0,0-5.53,5.48M178,12.8a8.28,8.28,0,0,0-7.94,5.58,9.18,9.18,0,0,0,3.2,10.68,8.55,8.55,0,0,0,4.9,1.6,10.52,10.52,0,0,0,6.15-2.21,1,1,0,0,0,.37-1.12,5.82,5.82,0,0,0-.43-1.09l-.14-.26a1,1,0,0,0-1.33-.46,7.06,7.06,0,0,0-1.21.78,4.73,4.73,0,0,1-1.7.89,4.89,4.89,0,0,1-1.49.22,5.68,5.68,0,0,1-4.18-1.84,4.6,4.6,0,0,1-1.16-2.77l11.54,0a1,1,0,0,0,1-.91,8.43,8.43,0,0,0-2-6.7A7.61,7.61,0,0,0,178,12.8Zm-4.75,6.73a4.85,4.85,0,0,1,4.4-3.48h.17a4.38,4.38,0,0,1,3.23,1.37,3.88,3.88,0,0,1,1,2.11Z" transform="translate(0)"/><g id="_1_5" data-name=" 1 5"><path class="cls-2" d="M178.21,30.16a8,8,0,0,1-4.62-1.51,8.57,8.57,0,0,1-3-10.1A7.8,7.8,0,0,1,178,13.3a7,7,0,0,1,5.24,2.2,8.07,8.07,0,0,1,1.84,6.32.5.5,0,0,1-.5.45l-12,0a5,5,0,0,0,1.29,3.6,6.16,6.16,0,0,0,4.55,2,5.5,5.5,0,0,0,1.63-.24,5.33,5.33,0,0,0,1.86-1A6.14,6.14,0,0,1,183,26a.59.59,0,0,1,.22,0,.5.5,0,0,1,.45.28l.13.27a5.06,5.06,0,0,1,.4,1,.5.5,0,0,1-.18.57,10.1,10.1,0,0,1-5.85,2.11ZM182.66,20a4.48,4.48,0,0,0-1.2-3,4.92,4.92,0,0,0-3.6-1.53h-.2a5.34,5.34,0,0,0-5,4.48Z" transform="translate(0)"/><path class="cls-1" d="M178,13.8c3.59,0,7,2.59,6.58,8l-12.5,0c-.46,3.93,2.91,6.61,6.3,6.61a6,6,0,0,0,1.78-.26c1.61-.48,2-1.19,3.06-1.73a6.05,6.05,0,0,1,.51,1.22,9.71,9.71,0,0,1-5.57,2,7.48,7.48,0,0,1-4.32-1.42A8.13,8.13,0,0,1,171,18.71a7.34,7.34,0,0,1,7-4.91m-5.92,6.73h11a5.15,5.15,0,0,0-5.29-5.48h-.21a5.83,5.83,0,0,0-5.53,5.48M178,12.8a8.28,8.28,0,0,0-7.94,5.58,9.18,9.18,0,0,0,3.2,10.68,8.55,8.55,0,0,0,4.9,1.6,10.52,10.52,0,0,0,6.15-2.21,1,1,0,0,0,.37-1.12,5.82,5.82,0,0,0-.43-1.09l-.14-.26a1,1,0,0,0-1.33-.46,7.06,7.06,0,0,0-1.21.78,4.73,4.73,0,0,1-1.7.89,4.89,4.89,0,0,1-1.49.22,5.68,5.68,0,0,1-4.18-1.84,4.6,4.6,0,0,1-1.16-2.77l11.54,0a1,1,0,0,0,1-.91,8.43,8.43,0,0,0-2-6.7A7.61,7.61,0,0,0,178,12.8Zm-4.75,6.73a4.85,4.85,0,0,1,4.4-3.48h.17a4.38,4.38,0,0,1,3.23,1.37,3.88,3.88,0,0,1,1,2.11Z" transform="translate(0)"/></g></g><path class="cls-4" d="M13.9,38.41c.36-.53-.26-.25.82-.34l3.66.09a16.22,16.22,0,0,0,8.67-3.06c.54-.4.09-.06.68-.4l.37-.2c.51-.34.11,0,.51-.42l-2.41.08-2.69.12-3,0h-5.3l-1.73-.09H6.61c1.3,1.87,5.3,3.8,7.29,4.25Z" transform="translate(0)"/><path class="cls-5" d="M.71,24.78l11.51,0h1.59c-.2-.11-.2-.26-.71-.31A4.18,4.18,0,0,0,12,24.35c.28-.82,0-2.35,0-3.82l5.33-.46-2.94,0h-1.9l-2.13,0H8.59l-2.8.06L0,20.07a12.31,12.31,0,0,0,.71,4.74v0Z" transform="translate(0)"/><path class="cls-6" d="M4.74,7H9.36L14,7l.65,0c.48-.42-.57-.34.57-.37-.37-.7-.23-.31-.26-1.36.68-.37.34-.31,1.36-.34.26-1.95.48.63.6-2.44,1.44-.36.42-.76,2.21-1.19.23-.05,1.16-.25,1.3-.31.88-.45-.31-.05.85-.65V0H18.55c-.6.23-3.09.45-4.14.77a18.94,18.94,0,0,0-3.83,1.44C8.42,3.37,5.65,5.41,4.74,7Z" transform="translate(0)"/><path class="cls-7" d="M13.22,10.83l.19,6.75,2.05-.09,1.16.09V11l2.66-.12,1-.05.31-3.35,5.19-.34h4.76l.11-.2L17,7c-1,.57-1,.4-2.44.48a7.76,7.76,0,0,0,.23,3.26l-1.56.09Z" transform="translate(0)"/><path class="cls-8" d="M13.81,24.75l2.18,0h4l2.18,0,2.5,0h1.76v0l-4.94-.37.54-3c-.54-.4-.45-.06-.54-.85L30,20.13h0l-1.59-.06h-4l-2.52.06-3.09-.06H17.38l-5.33.46c0,1.47.26,3,0,3.82a4.18,4.18,0,0,1,1.07.09c.51,0,.51.2.71.31Z" transform="translate(0)"/><path class="cls-9" d="M.94,14.77,1,17.38c2.69.4,4.87-.11,7,.14L8.11,11l-6,.08A8.63,8.63,0,0,0,.94,14.77Z" transform="translate(0)"/><g id="_749444992" data-name=" 749444992"><path class="cls-1" d="M170,14.18c-.28,1.64-4,10.68-5.07,13.43l-.91,1.7h-.82a1.63,1.63,0,0,1-.43-.53l-.54-1.39c-1.13-2.92-4.7-11.46-5-13.21h1.25c.82,1.84,1.82,4.53,2.55,6.57l2.7,6.52a68.06,68.06,0,0,1,2.6-7.11c.54-1.28.88-2.19,1.37-3.38,1.19-2.92.59-2.55,2.29-2.6m-11.51-1h-1.25a1,1,0,0,0-.76.35,1,1,0,0,0-.22.8c.21,1.34,1.89,5.56,3.89,10.53.47,1.17.88,2.19,1.15,2.89l.54,1.39a.91.91,0,0,0,.07.14,2.39,2.39,0,0,0,.51.67l.07.07a1,1,0,0,0,.71.29H164a1,1,0,0,0,.88-.53l.91-1.7a.36.36,0,0,0,0-.09l.36-.88c2.34-5.8,4.53-11.36,4.78-12.77a1,1,0,0,0-.23-.82,1,1,0,0,0-.76-.34h-.49c-1.41,0-1.69.45-2.18,1.79-.13.36-.3.82-.55,1.44-.18.43-.33.82-.49,1.21-.26.68-.53,1.34-.87,2.15-.23.62-.51,1.3-.79,2s-.7,1.71-1,2.57l-1.64-4c-.75-2.07-1.73-4.73-2.57-6.6a1,1,0,0,0-.91-.59Zm11.51,2h0Z" transform="translate(0)"/><g id="_1_6" data-name=" 1 6"><path class="cls-2" d="M163.19,29.81a.52.52,0,0,1-.36-.14l-.07-.08a2.17,2.17,0,0,1-.43-.56l-.57-1.46c-.27-.7-.69-1.72-1.16-2.9-1.53-3.81-3.64-9-3.86-10.42a.5.5,0,0,1,.49-.58h1.25a.51.51,0,0,1,.46.3c.82,1.85,1.8,4.51,2.56,6.61l2.14,5.17c.39-1.2.94-2.55,1.44-3.79.29-.71.56-1.39.79-2,.34-.82.6-1.48.87-2.16.16-.39.31-.79.49-1.22.26-.63.43-1.1.56-1.45.43-1.2.57-1.46,1.71-1.47H170a.51.51,0,0,1,.38.18.47.47,0,0,1,.11.41c-.23,1.36-2.52,7.15-4.74,12.64l-.36.9-.93,1.75a.51.51,0,0,1-.44.26Z" transform="translate(0)"/><path class="cls-1" d="M170,14.18c-.28,1.64-4,10.68-5.07,13.43l-.91,1.7h-.82a1.63,1.63,0,0,1-.43-.53l-.54-1.39c-1.13-2.92-4.7-11.46-5-13.21h1.25c.82,1.84,1.82,4.53,2.55,6.57l2.7,6.52a68.06,68.06,0,0,1,2.6-7.11c.54-1.28.88-2.19,1.37-3.38,1.19-2.92.59-2.55,2.29-2.6m-11.51-1h-1.25a1,1,0,0,0-.76.35,1,1,0,0,0-.22.8c.21,1.34,1.89,5.56,3.89,10.53.47,1.17.88,2.19,1.15,2.89l.54,1.39a.91.91,0,0,0,.07.14,2.39,2.39,0,0,0,.51.67l.07.07a1,1,0,0,0,.71.29H164a1,1,0,0,0,.88-.53l.91-1.7a.36.36,0,0,0,0-.09l.36-.88c2.34-5.8,4.53-11.36,4.78-12.77a1,1,0,0,0-.23-.82,1,1,0,0,0-.76-.34h-.49c-1.41,0-1.69.45-2.18,1.79-.13.36-.3.82-.55,1.44-.18.43-.33.82-.49,1.21-.26.68-.53,1.34-.87,2.15-.23.62-.51,1.3-.79,2s-.7,1.71-1,2.57l-1.64-4c-.75-2.07-1.73-4.73-2.57-6.6a1,1,0,0,0-.91-.59Zm11.51,2h0Z" transform="translate(0)"/></g></g><path class="cls-10" d="M26.46,24.69l4.25-.34c0-1.93-.14-3,.59-4.19l-1.3,0-8.48.37c.06.79,0,.45.54.85l-.54,3,4.94.37Z" transform="translate(0)"/><path class="cls-11" d="M.88,25.06c1,.63.63.4,1.25,1.19.51.63.79.6,1.48,1.05a3.28,3.28,0,0,0,1.67.85c1.19.4.76.11,1.42,1,2.24,0,1.13.09,2.46.54,1.14-.54.57.34,1.19-.17.06-.08.63-1.19.77-1.47.74-1,1.1-1.08,1.1-3.32l-11.51,0,.17.28Z" transform="translate(0)"/><path class="cls-12" d="M9.16,29.71l0,.4c1,.11.6.05,1.22.37l-.06,1.64H9.25l.11.4c1.53,0,3-.34,4.17-.4l-.46.74,1.42-.2c.43-1-.05-.88,1.25-1.19L16,24.72l-2.18,0H12.22c0,2.24-.39,2.32-1.1,3.32-.14.28-.71,1.39-.77,1.47-.62.51,0-.37-1.19.17Z" transform="translate(0)"/><g id="_749418496" data-name=" 749418496"><path class="cls-1" d="M125,10l1.33.2,0,4,4,.05-.09,1.28h-3.91c0,3.68-.79,9.81,1.25,11.71,1.47,1.39,1.84.53,3.09,1.16l-.06.82a3,3,0,0,1-1.2.24,4.47,4.47,0,0,1-3.28-1.6C124.18,25.32,124.89,13.3,125,10m0-1a1,1,0,0,0-.64.23A1,1,0,0,0,124,10c0,.39,0,.89,0,1.48-.31,8.71-.19,14.93,1.42,17a5.51,5.51,0,0,0,4.07,2,4.12,4.12,0,0,0,1.6-.32,1,1,0,0,0,.6-.85l.06-.82a1,1,0,0,0-.55-1,3.67,3.67,0,0,0-1.6-.38c-.41,0-.63,0-1.25-.61-1.29-1.2-1.13-5.36-1-8.4,0-.55,0-1.08.06-1.58h2.92a1,1,0,0,0,1-.94l.09-1.27a1,1,0,0,0-.26-.75,1,1,0,0,0-.73-.32l-3,0,0-3a1,1,0,0,0-.85-1L125.12,9Z" transform="translate(0)"/><g id="_1_7" data-name=" 1 7"><path class="cls-2" d="M129.41,29.94a5,5,0,0,1-3.67-1.79c-1.62-2.09-1.59-9.26-1.32-16.7,0-.59,0-1.1,0-1.48a.51.51,0,0,1,.18-.37.47.47,0,0,1,.32-.12H125l1.34.2a.5.5,0,0,1,.42.49l0,3.51,3.51.05a.5.5,0,0,1,.49.54l-.09,1.27a.49.49,0,0,1-.49.47h-3.42c0,.64,0,1.34-.07,2.06-.13,3.31-.29,7.43,1.16,8.78a2,2,0,0,0,1.58.75,3.21,3.21,0,0,1,1.39.33.51.51,0,0,1,.28.48l-.06.82a.51.51,0,0,1-.3.43A3.47,3.47,0,0,1,129.41,29.94Z" transform="translate(0)"/><path class="cls-1" d="M125,10l1.33.2,0,4,4,.05-.09,1.28h-3.91c0,3.68-.79,9.81,1.25,11.71,1.47,1.39,1.84.53,3.09,1.16l-.06.82a3,3,0,0,1-1.2.24,4.47,4.47,0,0,1-3.28-1.6C124.18,25.32,124.89,13.3,125,10m0-1a1,1,0,0,0-.64.23A1,1,0,0,0,124,10c0,.39,0,.89,0,1.48-.31,8.71-.19,14.93,1.42,17a5.51,5.51,0,0,0,4.07,2,4.12,4.12,0,0,0,1.6-.32,1,1,0,0,0,.6-.85l.06-.82a1,1,0,0,0-.55-1,3.67,3.67,0,0,0-1.6-.38c-.41,0-.63,0-1.25-.61-1.29-1.2-1.13-5.36-1-8.4,0-.55,0-1.08.06-1.58h2.92a1,1,0,0,0,1-.94l.09-1.27a1,1,0,0,0-.26-.75,1,1,0,0,0-.73-.32l-3,0,0-3a1,1,0,0,0-.85-1L125.12,9Z" transform="translate(0)"/></g></g><path class="cls-13" d="M14.49,32.66l.91.06c-1,.28-.14.11-.48.85l-1.34,0-.05.54,1.73.09c.79-.51.39-.34,1.9-.43l.62-.79a8.58,8.58,0,0,1,.85-.71c-.79-.79.2-.71.34-2.55l.74-.31c0-1.71.25-2.81.31-4.74H16l-.25,6.75c-1.3.31-.82.2-1.25,1.19Z" transform="translate(0)"/><g id="_749436640" data-name=" 749436640"><path class="cls-1" d="M138.75,14a.94.94,0,0,1,1,.77c.09.4,0,.4-.08.74h-.4c-6.33,0-5.19,10-5.19,13.84h-1.36l.06-15.13h1.27l.09,3.45c.27-1.59,3-3.66,4.59-3.66m0-1a6.5,6.5,0,0,0-3.67,1.66v-.48a1,1,0,0,0-1-1H132.8a1,1,0,0,0-1,1l-.06,15.14a1,1,0,0,0,1,1h1.36a1,1,0,0,0,1-1c0-.47,0-1,0-1.64-.09-3.06-.24-8.18,1.77-10.25a3.22,3.22,0,0,1,2.45-1h.4a1,1,0,0,0,1-.84l0-.1a1.75,1.75,0,0,0,.05-1,1.94,1.94,0,0,0-2-1.56Z" transform="translate(0)"/><g id="_1_8" data-name=" 1 8"><path class="cls-2" d="M132.74,29.81a.48.48,0,0,1-.5-.5l.06-15.14a.5.5,0,0,1,.5-.5h1.27a.5.5,0,0,1,.5.49l0,1.64a6.68,6.68,0,0,1,4.14-2.33,1.43,1.43,0,0,1,1.51,1.16,1.27,1.27,0,0,1,0,.75.65.65,0,0,0,0,.18.5.5,0,0,1-.49.42h-.4a3.71,3.71,0,0,0-2.81,1.1c-2.16,2.22-2,7.28-1.91,10.62,0,.61,0,1.16,0,1.62a.5.5,0,0,1-.5.5Z" transform="translate(0)"/><path class="cls-1" d="M138.75,14a.94.94,0,0,1,1,.77c.09.4,0,.4-.08.74h-.4c-6.33,0-5.19,10-5.19,13.84h-1.36l.06-15.13h1.27l.09,3.45c.27-1.59,3-3.66,4.59-3.66m0-1a6.5,6.5,0,0,0-3.67,1.66v-.48a1,1,0,0,0-1-1H132.8a1,1,0,0,0-1,1l-.06,15.14a1,1,0,0,0,1,1h1.36a1,1,0,0,0,1-1c0-.47,0-1,0-1.64-.09-3.06-.24-8.18,1.77-10.25a3.22,3.22,0,0,1,2.45-1h.4a1,1,0,0,0,1-.84l0-.1a1.75,1.75,0,0,0,.05-1,1.94,1.94,0,0,0-2-1.56Z" transform="translate(0)"/></g></g><g id="_749439136" data-name=" 749439136"><path class="cls-1" d="M188.76,9.24c.31,3.4,0,11.51.06,15.85,0,1.87,0,2.89,2.09,3.06l.06,1.22-1.45-.14c-2.89-.85-1.92-6.15-1.92-9.19,0-3.26-.29-7.68,0-10.8h1.13m0-1h-1.13a1,1,0,0,0-1,.9,67.77,67.77,0,0,0-.09,7.62c0,1.17.06,2.28.06,3.28,0,.55,0,1.19-.07,1.87-.18,3.28-.39,7.37,2.71,8.28a.58.58,0,0,0,.19,0l1.44.15h.1a1,1,0,0,0,1-1.05l-.06-1.21a1,1,0,0,0-.92-1c-1.15-.09-1.17-.12-1.17-2v-.07c0-1.43,0-3.26,0-5.2,0-3.94.11-8.41-.1-10.74a1,1,0,0,0-1-.91Z" transform="translate(0)"/><g id="_1_9" data-name=" 1 9"><path class="cls-2" d="M189.48,29.73c-2.82-.82-2.62-4.69-2.45-7.79,0-.69.07-1.33.07-1.9,0-1,0-2.13-.06-3.3a66.49,66.49,0,0,1,.09-7.55.5.5,0,0,1,.5-.45h1.13a.51.51,0,0,1,.5.46c.21,2.3.15,6.76.1,10.69,0,1.94-.05,3.77,0,5.2,0,1.93,0,2.43,1.63,2.56a.5.5,0,0,1,.46.48l.06,1.22a.5.5,0,0,1-.15.38.52.52,0,0,1-.35.14Z" transform="translate(0)"/><path class="cls-1" d="M188.76,9.24c.31,3.4,0,11.51.06,15.85,0,1.87,0,2.89,2.09,3.06l.06,1.22-1.45-.14c-2.89-.85-1.92-6.15-1.92-9.19,0-3.26-.29-7.68,0-10.8h1.13m0-1h-1.13a1,1,0,0,0-1,.9,67.77,67.77,0,0,0-.09,7.62c0,1.17.06,2.28.06,3.28,0,.55,0,1.19-.07,1.87-.18,3.28-.39,7.37,2.71,8.28a.58.58,0,0,0,.19,0l1.44.15h.1a1,1,0,0,0,1-1.05l-.06-1.21a1,1,0,0,0-.92-1c-1.15-.09-1.17-.12-1.17-2v-.07c0-1.43,0-3.26,0-5.2,0-3.94.11-8.41-.1-10.74a1,1,0,0,0-1-.91Z" transform="translate(0)"/></g></g><path class="cls-14" d="M13.9,38.41c5.72,1.48,12.07.85,16.81-2.69l1.67-1.5-2-.09-1.48.09-.31-.14c-.4.39,0,.11-.51.42l-.37.2c-.59.34-.14,0-.68.4a16.22,16.22,0,0,1-8.67,3.06l-3.66-.09c-1.08.09-.46-.19-.82.34Z" transform="translate(0)"/><path class="cls-15" d="M26.77,30.9l1.36-.06L28.18,32c1.51-.23.4-.79,1.51-.37l0-1.27c1.19-.74,1.08-1.11,1.45-2.7s.48-.82.88-1.41c.28-.4.08-.26.31-.74a3.43,3.43,0,0,1,.43-.71l-.66,0H27.59a22.79,22.79,0,0,1-.28,3.12,9.16,9.16,0,0,1-.15,1.56c-.31,1-.36.17-.39,1.5Z" transform="translate(0)"/><path class="cls-16" d="M3,29.85a8.52,8.52,0,0,1,1.56.65c1,.66.06.29,1.31.69a14.33,14.33,0,0,0,3.4.93h1.1l.06-1.64c-.62-.32-.2-.26-1.22-.37l0-.4c-1.33-.45-.22-.54-2.46-.54-.66-.91-.23-.62-1.42-1a3.07,3.07,0,0,1-1.67-.85c-.69-.45-1-.42-1.48-1.05-.62-.79-.2-.56-1.25-1.19C1.2,26.68,2,29,3,29.85Z" transform="translate(0)"/><path class="cls-17" d="M20.5,31.67l.77-.12.05,2.1.8-.14a6.22,6.22,0,0,1,1.22-1.79,5.26,5.26,0,0,1,.65.4l.42-.65.29-6.75-2.5,0a20,20,0,0,1-.37,4.2c-.14.48-.36,1-.59,1.67s-.14.74-.74,1.05Z" transform="translate(0)"/><path class="cls-18" d="M6.61,34.19h6.92l.05-.57,1.34,0c.34-.74-.51-.6.48-.85l-.91-.06-1.44.2.48-.74c-1.22.06-2.64.43-4.17.4l-.11-.4a15,15,0,0,1-3.43-.93c-1.22-.4-.29,0-1.28-.69A8.52,8.52,0,0,0,3,29.85a12.46,12.46,0,0,0,3.63,4.34Z" transform="translate(0)"/><path class="cls-19" d="M25,10.8l4.54.06,2.15.05a9,9,0,0,0-.51-2.06c-.28-.63-.71-.71-.62-1.71H25.78l-.46,2.78c-.25.8,0-.22-.34.88Z" transform="translate(0)"/><path class="cls-20" d="M29.69,31.58c-.43,1.25-.31.57-.2,2,1.22-1.45,2.32-2,3.43-4,.51-.91,1-1.62,1.45-2.55.34-.77.42-.57.7-1.05a5.26,5.26,0,0,0,.54-1.22h-2.8a3.43,3.43,0,0,0-.43.71c-.23.48,0,.34-.31.74-.4.59-.51-.15-.88,1.41s-.26,2-1.45,2.7l0,1.27Z" transform="translate(0)"/><polygon class="cls-21" points="22.94 17.52 24.59 17.58 25.98 17.61 25.95 11 22.91 11.03 22.94 17.52"/><path class="cls-22" d="M8.11,11a5.91,5.91,0,0,1,2.58.4l0,6.23,2.69-.05-.19-6.75-2.64.08L7.4,10.83l-5.3.11v.14l6-.05h0Z" transform="translate(0)"/><polygon class="cls-23" points="25.98 17.61 27.28 17.61 28.9 17.58 28.84 10.97 25.95 11 25.98 17.61"/><path class="cls-24" d="M24,32.12l.14.14c.06,0,.14.09.14.09l.37.25a2.15,2.15,0,0,0,1.05-.76c.74-.83-.26-.23,1.08-.94,0-1.33.08-.48.39-1.5a9.11,9.11,0,0,0,.15-1.53,23.75,23.75,0,0,0,.28-3.15H24.7l-.29,6.75-.42.65Z" transform="translate(0)"/><path class="cls-25" d="M20.28,10.86l.7,0,4,0c.31-1.1.09-.06.34-.88l.46-2.78-5.19.37-.31,3.35Z" transform="translate(0)"/><path class="cls-26" d="M8,17.52l2.38.06.37.05,0-6.23A5.91,5.91,0,0,0,8.11,11L8,17.52Z" transform="translate(0)"/><path class="cls-27" d="M2.1,10.91l5.3-.08L7.49,7.4,9.36,7H4.74A9.66,9.66,0,0,0,2.1,10.91Z" transform="translate(0)"/><path class="cls-28" d="M30.4,34.13l2,.09c1.79-.6,5.3-6.3,6-9.53l-1.16.06c-.28,2.44-4.2,6.8-5.87,8.22l-.93,1.16Z" transform="translate(0)"/><path class="cls-29" d="M0,20.07l5.79.06V17.8L8,17.52c-2.1-.25-4.28.26-7-.14L.94,14.77l-.25.34a18.22,18.22,0,0,0-.69,5Z" transform="translate(0)"/><path class="cls-30" d="M18.63,32.32c.34-.23,0-.17.77-.4a3.19,3.19,0,0,1,1.1-.25c.6-.31.46-.2.74-1.05s.45-1.19.59-1.67a20,20,0,0,0,.37-4.2l-2.18,0c-.06,1.93-.31,3-.31,4.74l-.74.31c-.14,1.84-1.13,1.76-.34,2.55Z" transform="translate(0)"/><path class="cls-31" d="M31.3,20.16l2.95.25c-.17,1.84-1,2.47-1.1,4l-1,.34.66,0H35l1.67-.43c.17-1.61.74-1.27.88-3.77l-1.62-.48H31.64L30,20.13h0l1.3,0Z" transform="translate(0)"/><path class="cls-32" d="M10.58,10.91l2.64-.08,1.56-.09a7.76,7.76,0,0,1-.23-3.26C16,7.4,16,7.57,17,7h-2.3L14,7l-3.43.51,0,3.41h0Z" transform="translate(0)"/><path class="cls-33" d="M29.49,33.57c-.88.34-.34-.26-.57.65l1.48-.09L31.33,33c1.67-1.42,5.59-5.78,5.87-8.22H35.61A5.26,5.26,0,0,1,35.07,26c-.28.48-.36.28-.7,1.05-.49.93-.94,1.64-1.45,2.55-1.11,2-2.21,2.55-3.43,4Z" transform="translate(0)"/><path class="cls-34" d="M30.93,17.61l2.22,0c.08-1.7.25-5-.32-6.3l1.31-.2.45-.22-2.92.05-2.15-.05v.05l1.36.12.05,6.58Z" transform="translate(0)"/><polygon class="cls-35" points="28.9 17.58 30.46 17.58 30.94 17.61 30.88 11.03 29.52 10.91 28.84 10.97 28.9 17.58"/><path class="cls-36" d="M26.46,24.69v0h5.69l1-.34c.11-1.5.93-2.13,1.1-4l-2.95-.25c-.73,1.24-.59,2.29-.59,4.19l-4.25.34Z" transform="translate(0)"/><path class="cls-37" d="M34.14,11.08c.74,1.65.51,4.26.51,6.5h2.07l-.37-6.3.62-.14-.22-.28-1.85,0-.31,0-.45.22Z" transform="translate(0)"/><polygon class="cls-38" points="7.41 10.83 10.58 10.91 10.61 7.48 14.04 6.97 9.36 7 7.49 7.4 7.41 10.83"/><path class="cls-39" d="M18.38,17.58l1.7-.06.11.06v-5.9c.4-.79-.17-.17.79-.85l-.7,0-1,.05c-1.21.63-.51-.05-.87.77v5.9Z" transform="translate(0)"/><path class="cls-32" d="M16.62,17.58h1.76v-5.9c.36-.82-.34-.14.9-.79L16.62,11v6.55Z" transform="translate(0)"/><path class="cls-40" d="M36.72,17.58l2.21-.06c-.31-2-.85-4.93-2-6.38l-.62.14.37,6.33h0v0Z" transform="translate(0)"/><path class="cls-41" d="M31.67,10.91l2.92-.05.29,0c-.17-.66,0-.06-.2-.49l-.2-.36a5.15,5.15,0,0,1-.4-1,9.16,9.16,0,0,0-.68-1.51l-2.86-.31c-.09,1,.34,1.05.62,1.68a9,9,0,0,1,.51,2.06Z" transform="translate(0)"/><path class="cls-42" d="M20.19,17.58h1.25v-6.3L22.91,11l3,0,2.89,0,.68-.06v-.08L25,10.8l-4,0c-1,.68-.39.06-.79.85v5.93h0v0Z" transform="translate(0)"/><polygon class="cls-43" points="21.44 17.58 22.94 17.52 22.91 11.03 21.44 11.28 21.44 17.58"/><path class="cls-44" d="M33.15,17.58h1.5c0-2.24.23-4.85-.51-6.5l-1.31.2C33.4,12.53,33.23,15.88,33.15,17.58Z" transform="translate(0)"/><path class="cls-45" d="M18.63,32.32a8.58,8.58,0,0,0-.85.71l-.62.79c-1.51.09-1.11-.08-1.9.43h5.3c.31-.34-.06,0,.48-.4,0,0,.11,0,.14-.11s.12-.06.14-.09l-.05-2.1-.77.12a3.19,3.19,0,0,0-1.1.25c-.77.23-.43.17-.77.4Z" transform="translate(0)"/><path class="cls-46" d="M24.64,32.6c-.37,1.33-.4.85-1.13,1.68l2.69-.09,2-2.24-.05-1.11-1.36.06c-1.34.71-.34.11-1.08,1a2.14,2.14,0,0,1-1.05.73Z" transform="translate(0)"/><polygon class="cls-47" points="28.41 20.07 30 20.13 31.65 20.07 31.68 18.09 33.91 17.58 33.15 17.58 30.94 17.61 30.46 17.58 28.47 18.06 28.41 20.07"/><path class="cls-48" d="M18.83,20.07l3.09.06V17.92l2.61-.34h0l-1.64-.06-1.5.06H20.19l-.11-.06-.63.26c-.68.42-.31,0-.62.59v1.7Z" transform="translate(0)"/><polygon class="cls-49" points="31.65 20.07 34.71 20.07 34.74 17.86 36.66 17.69 38.96 17.66 38.93 17.52 36.72 17.58 34.65 17.58 33.91 17.58 31.68 18.09 31.65 20.07"/><path class="cls-50" d="M35,24.75H37.2l1.16-.06L39,20.07H35.92l1.62.48c-.14,2.5-.71,2.16-.88,3.77L35,24.75Z" transform="translate(0)"/><polygon class="cls-51" points="5.79 20.13 8.6 20.07 8.6 17.89 10.38 17.63 10.36 17.58 7.97 17.52 5.79 17.8 5.79 20.13"/><path class="cls-52" d="M34.88,10.91l1.87-.05A13.05,13.05,0,0,0,34.22,7L30.65,7l-.11.2,2.86.31A9.16,9.16,0,0,1,34.08,9a5.15,5.15,0,0,0,.4,1l.2.36c.2.43,0-.17.2.49h0Z" transform="translate(0)"/><path class="cls-53" d="M14.44,17.66V20l2.94,0c-.19-1.25-.34-1.42.26-2.49h-1l-1.16-.09-1,.17Z" transform="translate(0)"/><path class="cls-54" d="M26,20.07h2.41l.06-2,2-.48H28.89l-1.61,0a2.42,2.42,0,0,1-.8.42.91.91,0,0,1-.48.06v2Z" transform="translate(0)"/><polygon class="cls-55" points="21.92 20.13 24.45 20.07 24.53 17.58 21.92 17.92 21.92 20.13"/><polygon class="cls-56" points="10.41 20.07 12.54 20.04 12.54 17.97 14.44 17.66 15.46 17.49 13.42 17.58 10.72 17.63 10.36 17.58 10.38 17.63 10.41 20.07"/><polygon class="cls-57" points="36.64 20.07 38.99 20.07 38.96 17.66 36.66 17.69 36.64 20.07"/><path class="cls-58" d="M28.18,32l-2,2.24,2.41-.11.31.14c.23-.91-.31-.31.57-.65-.11-1.42-.23-.74.2-2-1.11-.42,0,.14-1.51.37Z" transform="translate(0)"/><path class="cls-59" d="M21.32,33.65s-.08,0-.14.09-.11.08-.14.11c-.54.4-.17.06-.48.4l3,0c.73-.83.76-.35,1.13-1.68l-.37-.25s-.08-.09-.11-.09L24,32.12a5.26,5.26,0,0,0-.65-.4,6.22,6.22,0,0,0-1.22,1.79l-.8.14Z" transform="translate(0)"/><polygon class="cls-60" points="34.71 20.07 35.93 20.07 36.64 20.07 36.66 17.69 34.74 17.86 34.71 20.07"/><polygon class="cls-61" points="12.54 20.04 14.44 20.04 14.44 17.66 12.54 17.97 12.54 20.04"/><path class="cls-62" d="M24.44,20.07H26v-2a.91.91,0,0,0,.48-.06,2.42,2.42,0,0,0,.8-.42H26l-1.39,0h0l-.09,2.49Z" transform="translate(0)"/><polygon class="cls-63" points="8.6 20.07 10.41 20.07 10.38 17.63 8.6 17.89 8.6 20.07"/><path class="cls-64" d="M17.38,20.07h1.45v-1.7c.31-.59-.06-.17.62-.59l.63-.26-1.7.06h-.74c-.6,1.07-.45,1.24-.26,2.49Z" transform="translate(0)"/><path class="cls-1" d="M104.82,37.22l-.06,1.11c-1.05-.06-2.13-.06-3.23-.06v3.8c0,1.73,0,3.52.08,5.39H100.2c0-1.79.08-3.57.08-5.39,0-1.53,0-2.78-.06-3.8-.76,0-1.87,0-3.28.09l0-1.14h7.83m0-1H97a1,1,0,0,0-1,1l0,1.14a1,1,0,0,0,.29.75,1,1,0,0,0,.71.3h0l2.27-.08c0,.8,0,1.72,0,2.79,0,1.81,0,3.56-.08,5.36a1,1,0,0,0,.28.72,1,1,0,0,0,.72.31h1.41a1,1,0,0,0,.72-.31,1,1,0,0,0,.28-.72c0-1.88-.08-3.63-.08-5.36v-2.8c.75,0,1.47,0,2.18.06h.05a1,1,0,0,0,1-.95l.06-1.11a1,1,0,0,0-1-1.05Zm0,2Z" transform="translate(0)"/><g id="_749434880" data-name=" 749434880"><g id="_1_11" data-name=" 1 11"><path class="cls-1" d="M112.13,40a15.67,15.67,0,0,1-1.19,3.21,30.24,30.24,0,0,0-1.7,4.33,8.11,8.11,0,0,1-1,2.61A2.58,2.58,0,0,1,106,51l-.09-1.11a2.17,2.17,0,0,0,1.65-.68,2.32,2.32,0,0,0,.62-1.67,14.65,14.65,0,0,0-1.42-4.14c-1-2.21-1.44-3.29-1.44-3.35H107a25.61,25.61,0,0,0,1,2.84,15.66,15.66,0,0,1,1,3.29H109a14.12,14.12,0,0,1,.83-3,14.07,14.07,0,0,0,.85-3.15h1.44m0-1h-1.44a1,1,0,0,0-1,1,11.79,11.79,0,0,1-.75,2.67l-.06-.18c-.64-1.72-.87-2.46-.92-2.62a1,1,0,0,0-1-.87h-1.64a1,1,0,0,0-1,1c0,.25,0,.25.8,2.09l.73,1.66c1.32,3,1.33,3.71,1.33,3.74a1.32,1.32,0,0,1-.35,1,1.17,1.17,0,0,1-.92.36,1,1,0,0,0-.73.32,1,1,0,0,0-.26.76L105,51a1,1,0,0,0,1,.93,3.52,3.52,0,0,0,3-1.18,8,8,0,0,0,1.21-3,28.33,28.33,0,0,1,1.64-4.18c1.28-2.93,1.28-3.36,1.28-3.62a1,1,0,0,0-1-1Zm0,2h0Z" transform="translate(0)"/></g></g><g id="_749432992" data-name=" 749432992"><g id="_2" data-name=" 2"><path class="cls-1" d="M117.38,39.72a2.89,2.89,0,0,1,2.38,1.08,4,4,0,0,1,.88,2.6,4.78,4.78,0,0,1-1,3A3.21,3.21,0,0,1,117,47.66a2.52,2.52,0,0,1-1.87-.49H115c0,1.42,0,2.73,0,3.89h-1.5c.14-1.42.2-3.12.2-5.16a33.22,33.22,0,0,0-.4-5.87l1.39-.2.11.77h.09a3.05,3.05,0,0,1,2.44-.88m-.74,7a2.25,2.25,0,0,0,2-.91,3.86,3.86,0,0,0,.65-2.21,3.29,3.29,0,0,0-.63-2,2,2,0,0,0-1.73-.85,2.2,2.2,0,0,0-2,.88c.09,1.75.12,3.28.12,4.53a2.37,2.37,0,0,0,1.64.54m.74-8a4.9,4.9,0,0,0-2,.36,1,1,0,0,0-.66-.25h-.14l-1.39.2a1,1,0,0,0-.67.41,1,1,0,0,0-.17.76,33.13,33.13,0,0,1,.38,5.69,49.06,49.06,0,0,1-.2,5.06,1,1,0,0,0,.26.77,1,1,0,0,0,.74.33h1.5a1,1,0,0,0,.73-.31,1.06,1.06,0,0,0,.27-.74c0-.74,0-1.55,0-2.41a6.8,6.8,0,0,0,1,.06A4.23,4.23,0,0,0,120.47,47a5.86,5.86,0,0,0,1.17-3.62,5,5,0,0,0-1.1-3.23,3.89,3.89,0,0,0-3.16-1.45ZM115.9,42a1.63,1.63,0,0,1,1-.23,1,1,0,0,1,.93.45,2.27,2.27,0,0,1,.43,1.38,2.84,2.84,0,0,1-.48,1.65,1.25,1.25,0,0,1-1.13.47,2.15,2.15,0,0,1-.65-.09c0-1.18,0-2.39-.09-3.63Z" transform="translate(0)"/></g></g><g id="_749432448" data-name=" 749432448"><g id="_3" data-name=" 3"><path class="cls-1" d="M125.29,39.75a3.94,3.94,0,0,1,2.18.54,2.33,2.33,0,0,1,.76,2c0,.26,0,.71,0,1.36s0,1.08,0,1.28a12.9,12.9,0,0,0,.23,2.55l-1.25,0a2.76,2.76,0,0,1-.09-.71H127a4,4,0,0,1-2.67.88,2.74,2.74,0,0,1-1.56-.51,2,2,0,0,1-.62-1.53,2.39,2.39,0,0,1,1-2,7.42,7.42,0,0,1,3.83-.77,2,2,0,0,0,0-.42,1.43,1.43,0,0,0-.51-1.31,3.08,3.08,0,0,0-1.59-.34,9.66,9.66,0,0,0-2.41.32l.11-1.08a11.27,11.27,0,0,1,2.73-.31m-.4,6.83A3.14,3.14,0,0,0,127,46c0-.83,0-1.54,0-2.16a9.34,9.34,0,0,0-2.27.2,1.54,1.54,0,0,0-1.27,1.53c0,.71.48,1,1.5,1m.4-7.83a12.16,12.16,0,0,0-3,.34,1,1,0,0,0-.75.86L121.46,41a1,1,0,0,0,.34.86,1,1,0,0,0,.65.25.73.73,0,0,0,.25,0,8.89,8.89,0,0,1,2.16-.28,2.85,2.85,0,0,1,.91.12,6.6,6.6,0,0,0-3.23.89l-.05,0a3.41,3.41,0,0,0-1.38,2.75,3,3,0,0,0,.94,2.26l.12.09a3.67,3.67,0,0,0,2.12.69,5.41,5.41,0,0,0,2.19-.42.94.94,0,0,0,.65.25h0l1.25,0a1,1,0,0,0,.75-.37,1,1,0,0,0,.21-.82,12.48,12.48,0,0,1-.21-2.36c0-.2,0-.61,0-1.24l0-.59q0-.54,0-.81a3.27,3.27,0,0,0-1.15-2.77l-.06,0a4.94,4.94,0,0,0-2.73-.7ZM125,45a5.07,5.07,0,0,1,1-.13c0,.18,0,.38,0,.58a2.85,2.85,0,0,1-1,.17,1.41,1.41,0,0,1-.5-.06c0-.18,0-.37.56-.56Z" transform="translate(0)"/></g></g><g id="_749425536" data-name=" 749425536"><g id="_4" data-name=" 4"><path class="cls-1" d="M135.29,40l0,1.19c-.94-.08-2.22-.14-3.83-.14,0,1.08,0,2,0,2.81,0,1.27,0,2.46.11,3.6h-1.42c.09-1.05.14-2.24.14-3.6s-.05-2.81-.14-3.86h5.13m0-1h-5.13a1,1,0,0,0-.73.32,1,1,0,0,0-.26.76c.09,1.12.13,2.43.13,3.78s0,2.37-.13,3.52a1,1,0,0,0,.26.76,1,1,0,0,0,.73.32h1.42a1,1,0,0,0,.73-.32,1,1,0,0,0,.27-.76c-.08-1-.11-2.12-.11-3.52,0-.55,0-1.14,0-1.8,1,0,2,.06,2.71.13h.1a1,1,0,0,0,.66-.25,1,1,0,0,0,.34-.72l0-1.19a1,1,0,0,0-.28-.73,1,1,0,0,0-.72-.3Zm0,2h0Z" transform="translate(0)"/></g></g><g id="_749422816" data-name=" 749422816"><g id="_5" data-name=" 5"><path class="cls-1" d="M139.83,39.66a3,3,0,0,1,2.32.88,3.29,3.29,0,0,1,.8,2.3c0,.22,0,.54,0,.9l-5.44.12a2.92,2.92,0,0,0,.9,1.93,3,3,0,0,0,2.16.76,8,8,0,0,0,2.24-.28l-.12,1.07a5.81,5.81,0,0,1-2.23.32,4.2,4.2,0,0,1-3.15-1.08,4,4,0,0,1-1.05-2.75,4.81,4.81,0,0,1,1-2.95,3.2,3.2,0,0,1,2.64-1.22M137.53,43l4.09-.08c0-1.48-.6-2.24-1.85-2.24s-2,.79-2.24,2.32m5.25,3.32h0m-2.95-7.61a4.15,4.15,0,0,0-3.42,1.6,5.74,5.74,0,0,0-1.18,3.57,5,5,0,0,0,1.3,3.41l0,0a5.17,5.17,0,0,0,3.86,1.37,6.72,6.72,0,0,0,2.62-.39,1,1,0,0,0,.61-.82l.11-1a.91.91,0,0,0,0-.17,1,1,0,0,0-1-1h0a1.09,1.09,0,0,0-.26,0,7,7,0,0,1-1.94.24,2,2,0,0,1-1.47-.49,1.51,1.51,0,0,1-.21-.23l4.08-.09a1,1,0,0,0,1-1c0-.19,0-.36,0-.51s0-.28,0-.39a4.31,4.31,0,0,0-1-3,4,4,0,0,0-3.07-1.21ZM139,41.92a1,1,0,0,1,.8-.29.68.68,0,0,1,.66.26l-1.46,0Z" transform="translate(0)"/></g></g><g id="_749421856" data-name=" 749421856"><g id="_6" data-name=" 6"><path class="cls-1" d="M151,39.86c-.06,1.08-.09,2.41-.09,4,0,1.27,0,2.46.12,3.6h-1.39c.08-1,.11-2.16.11-3.46H146c0,1.19,0,2.35.11,3.46h-1.39c.09-1.05.12-2.24.12-3.6a20.32,20.32,0,0,0-.29-3.8l1.54-.2c0,.34-.06,1.39-.09,3.12h3.77a24.13,24.13,0,0,0-.28-2.92l1.53-.2m-4.93,0h0m0-1H146l-1.51.2a1,1,0,0,0-.69.4,1,1,0,0,0-.17.78,19.31,19.31,0,0,1,.27,3.61c0,1.47,0,2.59-.11,3.52a1,1,0,0,0,.26.76,1,1,0,0,0,.73.32h1.39a1,1,0,0,0,.74-.32,1,1,0,0,0,.26-.76c-.05-.71-.09-1.49-.1-2.38h1.75c0,1,0,1.72-.1,2.37a1,1,0,0,0,1,1.09h1.39a1,1,0,0,0,.73-.32,1,1,0,0,0,.26-.76c-.07-1-.11-2.12-.11-3.52,0-1.57,0-2.89.09-4a1,1,0,0,0-.32-.78,1,1,0,0,0-.68-.27h-.13l-1.53.2a1,1,0,0,0-.68.4,1,1,0,0,0-.18.77,16.28,16.28,0,0,1,.21,1.74H147c0-1.22,0-1.75.06-2,0,0,0-.1,0-.15a1,1,0,0,0-1-1Zm4.93,2Z" transform="translate(0)"/></g></g><g id="_749427904" data-name=" 749427904"><g id="_7" data-name=" 7"><path class="cls-1" d="M164,39.75a4.47,4.47,0,0,1,1.53.2l-.23,1.19a4.76,4.76,0,0,0-1.67-.32,2.28,2.28,0,0,0-1.78.8,2.78,2.78,0,0,0-.66,2A3.08,3.08,0,0,0,162,45.7a2.91,2.91,0,0,0,2.24.85,5.88,5.88,0,0,0,1.61-.28l-.08,1a3.16,3.16,0,0,1-1.67.37A4.14,4.14,0,0,1,161,46.55a3.66,3.66,0,0,1-1.08-2.72A4,4,0,0,1,161,40.94a3.85,3.85,0,0,1,3-1.19m0-1a4.81,4.81,0,0,0-3.75,1.52,5,5,0,0,0-1.39,3.56,4.67,4.67,0,0,0,1.37,3.43,5.11,5.11,0,0,0,3.83,1.4,4.06,4.06,0,0,0,2.21-.53,1,1,0,0,0,.46-.76l.08-1a1,1,0,0,0-.36-.86,1.05,1.05,0,0,0-.64-.22,1,1,0,0,0-.28,0,4.91,4.91,0,0,1-1.33.24,1.91,1.91,0,0,1-1.52-.54,2.09,2.09,0,0,1-.49-1.44,1.81,1.81,0,0,1,.4-1.29,1.32,1.32,0,0,1,1-.46,4,4,0,0,1,1.33.25.83.83,0,0,0,.34.07,1.13,1.13,0,0,0,.5-.13,1.06,1.06,0,0,0,.49-.69l.22-1.19a1,1,0,0,0-.64-1.13,5.71,5.71,0,0,0-1.87-.25Z" transform="translate(0)"/></g></g><g id="_749428096" data-name=" 749428096"><g id="_8" data-name=" 8"><path class="cls-1" d="M173.14,40h0l0,1.16c-.85-.08-1.7-.14-2.52-.14,0,.74,0,1.68,0,2.84s0,2.46.11,3.6H169.2c.08-1.05.11-2.24.11-3.6,0-1.14,0-2.07-.06-2.84-.82,0-1.67.06-2.55.14l.06-1.16h6.38m0-1h-6.38a1,1,0,0,0-1,1l-.06,1.17a1,1,0,0,0,1,1h.1c.55,0,1-.09,1.49-.11,0,.53,0,1.13,0,1.81,0,1.47,0,2.59-.11,3.52a1,1,0,0,0,.26.76,1,1,0,0,0,.74.32h1.44a1,1,0,0,0,.74-.32,1,1,0,0,0,.26-.76c-.07-1-.11-2.12-.11-3.52,0-.69,0-1.29,0-1.81.44,0,.92.06,1.44.11h.1a1,1,0,0,0,.66-.25,1,1,0,0,0,.34-.72l0-1a1.15,1.15,0,0,0,0-.19,1,1,0,0,0-1-1Z" transform="translate(0)"/></g></g><g id="_749419968" data-name=" 749419968"><g id="_9" data-name=" 9"><path class="cls-1" d="M177.53,39.92c1.87,0,2.81.54,2.81,1.7a1.75,1.75,0,0,1-1.13,1.76v.08a1.62,1.62,0,0,1,1.44,1.79,1.91,1.91,0,0,1-.88,1.7,4.84,4.84,0,0,1-2.55.54c-.59,0-1.5,0-2.72,0,.06-.71.08-1.9.08-3.6a23.66,23.66,0,0,0-.25-3.86h.82c.77,0,1.56-.08,2.38-.08m-.11,3.26a2.21,2.21,0,0,0,1.28-.34,1.07,1.07,0,0,0,.42-.88q0-1.11-1.62-1.11c-.51,0-1.13,0-1.81.09.06.76.06,1.5.06,2.21.68,0,1.22,0,1.67,0m.08,3.37c1.28,0,1.9-.4,1.9-1.22a1.09,1.09,0,0,0-.73-1.1,4.42,4.42,0,0,0-1.45-.17c-.48,0-1,0-1.47,0,0,.94,0,1.73,0,2.36a16.57,16.57,0,0,0,1.72.08m0-7.63c-.83,0-1.64,0-2.42.08h-.78a1,1,0,0,0-1,1.17,22.75,22.75,0,0,1,.24,3.69c0,1.65,0,2.84-.08,3.52a1,1,0,0,0,.26.75,1,1,0,0,0,.72.33c1.23,0,2.14,0,2.74,0a5.83,5.83,0,0,0,3.08-.69,2.93,2.93,0,0,0,1.35-2.55,2.78,2.78,0,0,0-.74-2,3,3,0,0,0,.43-1.61c0-1-.5-2.7-3.81-2.7Zm-.79,2.95.76,0a1.55,1.55,0,0,1,.62.09V42h0s0,0-.05.05a1.45,1.45,0,0,1-.65.12h-.68v-.29Zm0,3.19h.46a3.44,3.44,0,0,1,1.11.11c.06,0,.07,0,.07.16v.08h0a1.92,1.92,0,0,1-.9.14h-.74v-.48Z" transform="translate(0)"/></g></g><g id="_749419840" data-name=" 749419840"><g id="_10" data-name=" 10"><path class="cls-1" d="M186.15,39.66a3.37,3.37,0,0,1,2.5,1,3.73,3.73,0,0,1,1,2.84,4.13,4.13,0,0,1-1.16,3.17,3.8,3.8,0,0,1-2.69,1.08,3.59,3.59,0,0,1-2.52-1,3.68,3.68,0,0,1-1-2.84,4.24,4.24,0,0,1,1.16-3.17,3.71,3.71,0,0,1,2.72-1.11M186,46.78a1.91,1.91,0,0,0,1.73-.91,3.69,3.69,0,0,0,.59-2.1,3.74,3.74,0,0,0-.62-2.18,1.85,1.85,0,0,0-1.73-1,2.05,2.05,0,0,0-1.76.9,3.79,3.79,0,0,0-.59,2.1,4,4,0,0,0,.62,2.21,2,2,0,0,0,1.76.94m.14-8.12a4.77,4.77,0,0,0-3.43,1.4,5.29,5.29,0,0,0-1.45,3.88,4.62,4.62,0,0,0,1.37,3.57,4.55,4.55,0,0,0,3.2,1.23,4.83,4.83,0,0,0,3.37-1.34,5.2,5.2,0,0,0,1.48-3.91,4.63,4.63,0,0,0-1.37-3.57,4.31,4.31,0,0,0-3.17-1.26ZM186,45.78a1,1,0,0,1-.91-.47,3,3,0,0,1-.47-1.68,2.66,2.66,0,0,1,.43-1.54,1,1,0,0,1,.92-.46.87.87,0,0,1,.86.45.43.43,0,0,0,0,.07,2.76,2.76,0,0,1,.45,1.62,2.79,2.79,0,0,1-.42,1.55.92.92,0,0,1-.9.46Z" transform="translate(0)"/></g></g><g id="_749424704" data-name=" 749424704"><path class="cls-65" d="M113.55,51.56a.52.52,0,0,1-.37-.16.53.53,0,0,1-.13-.38c.13-1.6.2-3.32.2-5.12a33.59,33.59,0,0,0-.39-5.78.51.51,0,0,1,.08-.38.49.49,0,0,1,.34-.2l1.39-.2h.07a.51.51,0,0,1,.49.38,4.32,4.32,0,0,1,2.18-.49,3.28,3.28,0,0,1,2.74,1.3,4.44,4.44,0,0,1,1,2.91,5.23,5.23,0,0,1-1.07,3.28A3.69,3.69,0,0,1,117,48.18,5.11,5.11,0,0,1,115.5,48c0,1.11,0,2.14,0,3a.46.46,0,0,1-.14.36.51.51,0,0,1-.36.15Zm2-5.63a2.16,2.16,0,0,0,1.17.29,1.73,1.73,0,0,0,1.52-.7,3.24,3.24,0,0,0,.56-1.92,2.66,2.66,0,0,0-.53-1.68,1.53,1.53,0,0,0-1.33-.62,2,2,0,0,0-1.5.51C115.46,43.22,115.49,44.6,115.5,45.93ZM106,51.45a.51.51,0,0,1-.5-.47l-.09-1.1a.49.49,0,0,1,.14-.38.48.48,0,0,1,.36-.16,1.73,1.73,0,0,0,1.29-.51,1.83,1.83,0,0,0,.51-1.32c0-.29-.18-1.19-1.4-4-1.49-3.37-1.49-3.43-1.49-3.55a.5.5,0,0,1,.5-.5h1.61a.5.5,0,0,1,.5.5c0,.14.45,1.27,1,2.69.16.43.37,1,.56,1.56q.16-.53.42-1.26a14,14,0,0,0,.8-3,.5.5,0,0,1,.5-.5h1.44a.5.5,0,0,1,.5.5c0,.35-.21,1.07-1.23,3.41a37.33,37.33,0,0,0-1.68,4.29,7.81,7.81,0,0,1-1.09,2.8A3.2,3.2,0,0,1,106,51.45Zm79.83-3.18A4.12,4.12,0,0,1,183,47.15,4.31,4.31,0,0,1,181.77,44a4.79,4.79,0,0,1,1.31-3.53,4.24,4.24,0,0,1,3.07-1.28A4,4,0,0,1,189,40.29a4.39,4.39,0,0,1,1.2,3.23A4.64,4.64,0,0,1,188.91,47,4.21,4.21,0,0,1,185.84,48.27Zm.14-7.12a1.4,1.4,0,0,0-1.31.68,3,3,0,0,0-.54,1.83,3.34,3.34,0,0,0,.54,1.91,1.46,1.46,0,0,0,1.34.71,1.4,1.4,0,0,0,1.31-.68,3.09,3.09,0,0,0,.54-1.83,3.62,3.62,0,0,0-.55-1.92A1.49,1.49,0,0,0,186,41.15Zm-21.91,7a4.54,4.54,0,0,1-3.49-1.29,4.27,4.27,0,0,1-1.21-3.06,4.6,4.6,0,0,1,1.27-3.23A4.47,4.47,0,0,1,164,39.25a6,6,0,0,1,1.67.19A.49.49,0,0,1,166,40l-.22,1.24a.51.51,0,0,1-.25.35.51.51,0,0,1-.25.06.51.51,0,0,1-.17,0,4.51,4.51,0,0,0-1.5-.28,1.7,1.7,0,0,0-1.4.62,2.38,2.38,0,0,0-.54,1.6,2.49,2.49,0,0,0,.66,1.79,2.32,2.32,0,0,0,1.85.69,6.24,6.24,0,0,0,1.51-.26.3.3,0,0,1,.13,0,.52.52,0,0,1,.32.11.5.5,0,0,1,.18.43l-.08,1a.54.54,0,0,1-.25.39A3.78,3.78,0,0,1,164.07,48.18Zm-23.65,0a4.54,4.54,0,0,1-3.48-1.29,4.27,4.27,0,0,1-1.21-3.06,5.12,5.12,0,0,1,1.1-3.26,3.66,3.66,0,0,1,3-1.41,3.41,3.41,0,0,1,2.7,1.05,4,4,0,0,1,.92,2.66c0,.08,0,.19,0,.32s0,.36,0,.58a.49.49,0,0,1-.49.5l-4.84.08a2.19,2.19,0,0,0,.64,1.07,2.52,2.52,0,0,0,1.81.63,7.78,7.78,0,0,0,2.1-.26.32.32,0,0,1,.14,0,.47.47,0,0,1,.32.12.47.47,0,0,1,.17.44l-.14,1.11a.49.49,0,0,1-.31.4A6.83,6.83,0,0,1,140.42,48.18Zm-.65-7a1.51,1.51,0,0,0-1.59,1.29l2.91-.06C141,41.31,140.39,41.15,139.77,41.15Zm-15.45,7a3,3,0,0,1-1.87-.62,2.46,2.46,0,0,1-.84-1.92,2.84,2.84,0,0,1,1.22-2.36,6.87,6.87,0,0,1,3.63-.85c0-.43-.11-.71-.29-.83a2.83,2.83,0,0,0-1.28-.23,9.47,9.47,0,0,0-2.32.3h-.12a.5.5,0,0,1-.33-.12.49.49,0,0,1-.16-.44L122.1,40a.48.48,0,0,1,.35-.41,10.05,10.05,0,0,1,2.84-.36,4.16,4.16,0,0,1,2.47.66,2.81,2.81,0,0,1,1,2.39c0,.23,0,.69,0,1.35s0,1.06,0,1.28a11.3,11.3,0,0,0,.21,2.42.47.47,0,0,1-.09.41.49.49,0,0,1-.37.2l-1.27,0a.5.5,0,0,1-.49-.39h0A4.66,4.66,0,0,1,124.32,48.16Zm2.12-3.85a5.61,5.61,0,0,0-1.59.19c-.86.25-1,.68-1,1,0,.19,0,.55,1,.55a2.79,2.79,0,0,0,1.57-.38c0-.34,0-.66,0-1ZM177.22,48c-.6,0-1.51,0-2.74,0a.5.5,0,0,1-.36-.18.53.53,0,0,1-.12-.38,33.65,33.65,0,0,0,.11-3.54,20.36,20.36,0,0,0-.27-3.76.53.53,0,0,1,.1-.42.53.53,0,0,1,.39-.18h.82c.77,0,1.58-.08,2.38-.08,2.74,0,3.31,1.21,3.31,2.23a2.25,2.25,0,0,1-.64,1.66,2.14,2.14,0,0,1,1,1.94,2.43,2.43,0,0,1-1.13,2.11A5.3,5.3,0,0,1,177.22,48Zm-.94-2c.36,0,.76,0,1.22,0,1.4,0,1.4-.5,1.4-.72a.55.55,0,0,0-.4-.6,3.63,3.63,0,0,0-1.25-.15h-1Zm0-3.34h1.15a1.66,1.66,0,0,0,1-.25.52.52,0,0,0,.22-.44c0-.2,0-.61-1.09-.61-.39,0-.82,0-1.31,0C176.25,41.84,176.26,42.26,176.27,42.67ZM169.2,48a.52.52,0,0,1-.37-.16.53.53,0,0,1-.13-.38c.08-.94.11-2.06.11-3.53,0-.9,0-1.67,0-2.34-.72,0-1.39.05-2,.11h-.05a.48.48,0,0,1-.34-.13.51.51,0,0,1-.16-.39l.06-1.16a.5.5,0,0,1,.5-.48h6.35a.48.48,0,0,1,.36.16.47.47,0,0,1,.14.37l-.06,1.16a.47.47,0,0,1-.17.35.5.5,0,0,1-.33.12H173c-.62-.06-1.25-.09-2-.11,0,.64,0,1.43,0,2.34,0,1.39,0,2.51.11,3.53a.52.52,0,0,1-.13.38.51.51,0,0,1-.37.16Zm-19.53,0a.5.5,0,0,1-.5-.54c.07-.79.1-1.72.11-2.92h-2.77c0,1,.07,2,.11,2.93a.5.5,0,0,1-.13.37.52.52,0,0,1-.37.16h-1.36a.48.48,0,0,1-.36-.16.5.5,0,0,1-.14-.38c.08-.94.12-2.06.12-3.53a19.64,19.64,0,0,0-.28-3.74.52.52,0,0,1,.09-.38.48.48,0,0,1,.34-.21l1.53-.2h.06a.52.52,0,0,1,.35.14.49.49,0,0,1,.15.4c0,.28,0,1-.08,2v.59h2.71a17.45,17.45,0,0,0-.24-2.36.53.53,0,0,1,.09-.39.52.52,0,0,1,.34-.2l1.53-.2H151a.53.53,0,0,1,.34.13.5.5,0,0,1,.16.4c-.06,1.06-.09,2.4-.09,4,0,1.39,0,2.51.12,3.53a.49.49,0,0,1-.14.38.48.48,0,0,1-.36.16Zm-19.48,0a.52.52,0,0,1-.37-.16.53.53,0,0,1-.13-.38c.08-.94.11-2.06.11-3.53,0-1.68,0-2.87-.11-3.85a.5.5,0,0,1,.5-.54h5.1a.52.52,0,0,1,.37.16.5.5,0,0,1,.13.37l0,1.21a.5.5,0,0,1-.18.36.49.49,0,0,1-.32.12h-.06a28.13,28.13,0,0,0-3.23-.14c0,.85.05,1.62.05,2.31,0,1.39,0,2.51.11,3.53a.49.49,0,0,1-.14.38.48.48,0,0,1-.36.16Zm-30,0a.48.48,0,0,1-.36-.16.47.47,0,0,1-.14-.37c.07-1.59.11-3.34.11-5.33,0-1.29,0-2.4,0-3.32-.72,0-1.65,0-2.76.08h0a.49.49,0,0,1-.35-.15.54.54,0,0,1-.15-.37l0-1.13a.51.51,0,0,1,.5-.49h7.83a.5.5,0,0,1,.36.16.55.55,0,0,1,.14.37l-.06,1.1a.51.51,0,0,1-.5.48h0c-.85,0-1.75-.06-2.68-.06,0,.91,0,2,0,3.33,0,1.69,0,3.49.08,5.34a.47.47,0,0,1-.14.37.51.51,0,0,1-.36.15Z" transform="translate(0)"/><path class="cls-1" d="M104.82,37.22l-.06,1.11c-1-.06-2.1-.06-3.2-.06,0,1,0,2.27,0,3.83s0,3.49.08,5.36h-1.44c.08-1.79.11-3.57.11-5.36,0-1.53,0-2.81-.06-3.83-.76,0-1.87,0-3.26.09l0-1.14h7.83m81.33,2.44a3.45,3.45,0,0,1,2.52,1,3.87,3.87,0,0,1,1.05,2.87,4.14,4.14,0,0,1-1.16,3.12,3.71,3.71,0,0,1-2.72,1.13,3.62,3.62,0,0,1-2.52-1,3.82,3.82,0,0,1-1-2.81,4.24,4.24,0,0,1,1.16-3.17,3.74,3.74,0,0,1,2.72-1.14M186,46.78a1.91,1.91,0,0,0,1.73-.91,3.56,3.56,0,0,0,.62-2.1,4.05,4.05,0,0,0-.62-2.18,2,2,0,0,0-1.76-.94,1.91,1.91,0,0,0-1.73.91,3.52,3.52,0,0,0-.62,2.1,3.88,3.88,0,0,0,.62,2.18,2,2,0,0,0,1.76.94m-46.18-7.12a3,3,0,0,1,2.32.88,3.46,3.46,0,0,1,.8,2.33c0,.19,0,.51,0,.9l-5.41.09a2.89,2.89,0,0,0,.87,1.93,3,3,0,0,0,2.16.76,8,8,0,0,0,2.24-.28l-.14,1.1a6.3,6.3,0,0,1-2.21.31,4,4,0,0,1-3.12-1.13,3.78,3.78,0,0,1-1.08-2.72,4.65,4.65,0,0,1,1-2.95,3.16,3.16,0,0,1,2.61-1.22M137.56,43l4.06-.08c0-1.48-.6-2.22-1.85-2.22s-2,.77-2.21,2.3M117.4,39.72a2.84,2.84,0,0,1,2.36,1.1,4,4,0,0,1,.88,2.61,4.76,4.76,0,0,1-1,3A3.21,3.21,0,0,1,117,47.68a2.67,2.67,0,0,1-1.93-.51h0c0,1.45,0,2.75,0,3.89h-1.47c.11-1.39.2-3.12.2-5.16a33.7,33.7,0,0,0-.4-5.87l1.39-.2.11.77h.06a3.18,3.18,0,0,1,2.49-.88m-.73,7a2.23,2.23,0,0,0,1.93-.91,3.8,3.8,0,0,0,.65-2.21,3.15,3.15,0,0,0-.63-2,2,2,0,0,0-1.73-.82,2.29,2.29,0,0,0-2,.85c.09,1.75.12,3.28.12,4.53a2.45,2.45,0,0,0,1.67.54m47.34-7a5.47,5.47,0,0,1,1.53.17l-.23,1.24a5,5,0,0,0-1.67-.31,2.19,2.19,0,0,0-1.78.8,2.9,2.9,0,0,0-.66,1.92,3,3,0,0,0,.8,2.13,2.8,2.8,0,0,0,2.21.85,6.24,6.24,0,0,0,1.64-.28l-.08,1a3.35,3.35,0,0,1-1.7.36A4,4,0,0,1,161,46.55a3.78,3.78,0,0,1-1.08-2.72A4.1,4.1,0,0,1,161,40.94a4,4,0,0,1,3-1.19m-38.72,0a3.77,3.77,0,0,1,2.18.56,2.35,2.35,0,0,1,.74,2c0,.23,0,.68,0,1.33s0,1.08,0,1.3a11.48,11.48,0,0,0,.23,2.53l-1.25,0a3.23,3.23,0,0,1-.09-.73H127a3.78,3.78,0,0,1-2.64.88,2.48,2.48,0,0,1-1.56-.51,2,2,0,0,1-.65-1.53,2.35,2.35,0,0,1,1-2,7.29,7.29,0,0,1,3.8-.77,1.72,1.72,0,0,0,0-.42,1.47,1.47,0,0,0-.51-1.31,3.32,3.32,0,0,0-1.56-.31,10.52,10.52,0,0,0-2.44.31l.14-1.07a9.53,9.53,0,0,1,2.7-.34m-.4,6.83A3.14,3.14,0,0,0,127,46c0-.83,0-1.54,0-2.16a7.61,7.61,0,0,0-2.24.23,1.51,1.51,0,0,0-1.3,1.5c0,.71.51,1,1.5,1M151,39.86c-.06,1.08-.09,2.44-.09,4,0,1.24,0,2.43.12,3.57h-1.39c.08-1,.11-2.16.11-3.46H146c0,1.19.06,2.32.11,3.46h-1.36c.09-1.05.12-2.24.12-3.57a20.45,20.45,0,0,0-.29-3.83l1.53-.2c0,.37-.05,1.42-.11,3.15h3.74a20.21,20.21,0,0,0-.25-2.95l1.53-.2m-4.91,0h0m31.4.06c1.87,0,2.81.56,2.81,1.73a1.75,1.75,0,0,1-1.13,1.73v.08a1.67,1.67,0,0,1,1.47,1.79,1.94,1.94,0,0,1-.91,1.7,4.82,4.82,0,0,1-2.55.56c-.59,0-1.5,0-2.72,0,.08-.71.11-1.9.11-3.6a20.55,20.55,0,0,0-.28-3.86h.82c.8,0,1.59-.08,2.38-.08m-.11,3.26a2.21,2.21,0,0,0,1.28-.34,1.06,1.06,0,0,0,.42-.85c0-.74-.54-1.11-1.59-1.11-.54,0-1.13,0-1.84.06.06.76.09,1.5.09,2.21.65,0,1.19,0,1.64,0m.08,3.37c1.25,0,1.9-.4,1.9-1.22a1,1,0,0,0-.73-1.08,4.63,4.63,0,0,0-1.42-.17c-.51,0-1,0-1.47,0v2.36a16.57,16.57,0,0,0,1.72.08M173.11,40l-.06,1.16c-.85-.08-1.67-.11-2.49-.11,0,.71,0,1.67,0,2.84s0,2.43.11,3.57H169.2c.08-1.05.11-2.24.11-3.57,0-1.14,0-2.07-.06-2.84-.82,0-1.67,0-2.55.11l.06-1.16h6.35m-37.82,0,0,1.22a34.88,34.88,0,0,0-3.8-.14c0,1.05.05,2,.05,2.81,0,1.24,0,2.43.12,3.57h-1.42c.09-1.05.11-2.24.11-3.57,0-1.54,0-2.81-.11-3.89h5.1m-23.16,0a15,15,0,0,1-1.19,3.21,35.85,35.85,0,0,0-1.7,4.36,8.3,8.3,0,0,1-1,2.61,2.78,2.78,0,0,1-2.24.76l-.09-1.1a2.26,2.26,0,0,0,1.65-.65,2.42,2.42,0,0,0,.65-1.68,15,15,0,0,0-1.45-4.16c-1-2.19-1.44-3.32-1.44-3.35h1.61c0,.14.34,1.08,1,2.87a13.43,13.43,0,0,1,1,3.26H109a15.61,15.61,0,0,1,.85-3,14.07,14.07,0,0,0,.83-3.15h1.44m30.65,6.27h0m-38-10.05H97a1,1,0,0,0-1,1l0,1.13a1.05,1.05,0,0,0,.3.74,1,1,0,0,0,.7.29H97l2.24-.08q0,1.2,0,2.82c0,2,0,3.72-.11,5.31a1.06,1.06,0,0,0,.27.74,1,1,0,0,0,.73.31h1.44a1,1,0,0,0,.72-.31,1,1,0,0,0,.28-.72c0-1.85-.08-3.65-.08-5.33,0-1.09,0-2,0-2.83.71,0,1.39,0,2,0a1,1,0,0,0-.26.68c0,.26,0,.28,1.53,3.75,1.29,2.93,1.36,3.65,1.36,3.76a1.39,1.39,0,0,1-.38,1,1.21,1.21,0,0,1-.92.34,1,1,0,0,0-.73.32,1,1,0,0,0-.26.76L105,51a1,1,0,0,0,1,.92,3.73,3.73,0,0,0,3-1.12,8.27,8.27,0,0,0,1.19-3,35.2,35.2,0,0,1,1.65-4.22c.31-.72.55-1.28.73-1.74.1,1.13.16,2.48.16,4,0,1.78-.07,3.49-.2,5.08a1,1,0,0,0,.26.76,1,1,0,0,0,.74.32H115a1,1,0,0,0,.72-.3A1,1,0,0,0,116,51c0-.73,0-1.53,0-2.41a7.26,7.26,0,0,0,1,.06A4.24,4.24,0,0,0,120.47,47a5.58,5.58,0,0,0,.65-1.1,2.88,2.88,0,0,0,1,2,3.47,3.47,0,0,0,2.21.76,5.48,5.48,0,0,0,2.14-.4,1,1,0,0,0,.67.25h0l1.25,0a1,1,0,0,0,.75-.4.87.87,0,0,0,.11-.18,1.1,1.1,0,0,0,.18.26,1,1,0,0,0,.73.32h1.42a1,1,0,0,0,.73-.32,1,1,0,0,0,.27-.76c-.08-1-.12-2.11-.12-3.49,0-.56,0-1.16,0-1.81,1,0,1.94.05,2.64.13h.13l.21,0a5.78,5.78,0,0,0-.22,1.63,4.75,4.75,0,0,0,1.36,3.41,5,5,0,0,0,3.84,1.44A7.11,7.11,0,0,0,143,48.3a1,1,0,0,0,.63-.8l.13-1a1.36,1.36,0,0,0,0-.2,1,1,0,0,0-1-1h-.05a1.09,1.09,0,0,0-.25,0,7,7,0,0,1-1.94.24,2.06,2.06,0,0,1-1.47-.49l-.2-.22,4.07-.07a1,1,0,0,0,.94-.7c0,1.36,0,2.42-.11,3.31a1,1,0,0,0,.26.76,1,1,0,0,0,.73.32h1.36a1,1,0,0,0,.73-.31,1,1,0,0,0,.27-.74c0-.79-.08-1.59-.1-2.41h1.75c0,1,0,1.72-.1,2.37a1,1,0,0,0,1,1.09h1.39a1,1,0,0,0,.73-.32,1,1,0,0,0,.26-.76c-.07-1-.11-2.11-.11-3.49,0-1.59,0-2.92.09-4a1,1,0,0,0-.32-.78,1,1,0,0,0-.68-.27h-.13l-1.53.2a1,1,0,0,0-.86,1.16,15.78,15.78,0,0,1,.2,1.78H147v-.08c0-1,0-1.63.07-1.93,0,0,0-.09,0-.14a1,1,0,0,0-1-1H146l-1.52.2a1,1,0,0,0-.68.4,1,1,0,0,0-.17.78,11.11,11.11,0,0,1,.18,1.32,4.24,4.24,0,0,0-.88-1.68,3.94,3.94,0,0,0-3.08-1.23,4.16,4.16,0,0,0-3.39,1.6l-.17.22,0-.43a1,1,0,0,0-.27-.74,1,1,0,0,0-.73-.31h-5.1a1,1,0,0,0-.73.32,1,1,0,0,0-.27.76c.08,1,.11,2.14.11,3.81,0,1.08,0,2-.06,2.74a13.62,13.62,0,0,1-.09-1.7c0-.21,0-.63,0-1.26s0-1.14,0-1.37a3.27,3.27,0,0,0-1.13-2.78,4.65,4.65,0,0,0-2.79-.77,10.63,10.63,0,0,0-3,.38,1,1,0,0,0-.71.83L121.46,41a1,1,0,0,0,.33.88,1,1,0,0,0,.66.25l.24,0a9.48,9.48,0,0,1,2.2-.28,3,3,0,0,1,.85.1,6.46,6.46,0,0,0-3.19.89,3.86,3.86,0,0,0-.92,1c0-.13,0-.26,0-.39a4.92,4.92,0,0,0-1.1-3.23,3.82,3.82,0,0,0-3.14-1.48,5.35,5.35,0,0,0-2,.35,1,1,0,0,0-.65-.24h-.14l-1.39.2a1,1,0,0,0-.45.18,1,1,0,0,0-.63-.22h-1.44a1,1,0,0,0-1,1,12.81,12.81,0,0,1-.74,2.72c0-.07,0-.14-.08-.22-.44-1.2-.86-2.35-.93-2.63a1,1,0,0,0-1-.87H105.5a1,1,0,0,0,.26-.62l.06-1.11a1,1,0,0,0-1-1.05Zm0,2ZM151,40.86ZM135.29,41h0Zm-23.16,0h0Zm26.88.92a.93.93,0,0,1,.76-.27c.25,0,.5,0,.66.24l-1.42,0ZM115.9,42a1.71,1.71,0,0,1,1-.23,1.07,1.07,0,0,1,.93.41,2.21,2.21,0,0,1,.43,1.39,2.77,2.77,0,0,1-.48,1.65,1.23,1.23,0,0,1-1.1.47,2,2,0,0,1-.68-.1c0-1.16,0-2.37-.09-3.59Zm8.49,3.49c0-.19,0-.38.58-.53a3.77,3.77,0,0,1,1-.16c0,.18,0,.38,0,.57a2.69,2.69,0,0,1-1.06.18,1.41,1.41,0,0,1-.5-.06Zm61.76-6.86a4.79,4.79,0,0,0-3.43,1.43,5.19,5.19,0,0,0-1.45,3.6,2,2,0,0,0-.37-.46,2.84,2.84,0,0,0,.44-1.58c0-1-.5-2.73-3.81-2.73-.8,0-1.61,0-2.41.08h-.79a1,1,0,0,1-1.22,0h-6.35a.94.94,0,0,0-.55.17,1,1,0,0,0-.39-.21,6.34,6.34,0,0,0-1.81-.21,5,5,0,0,0-3.73,1.49,5.13,5.13,0,0,0-1.41,3.59,4.75,4.75,0,0,0,1.36,3.41,5,5,0,0,0,3.84,1.44,4.16,4.16,0,0,0,2.21-.51,1,1,0,0,0,.48-.77l.09-1a1,1,0,0,0-.36-.85,1,1,0,0,0-.64-.23l-.27,0a5.11,5.11,0,0,1-1.37.25,1.87,1.87,0,0,1-1.47-.52,2,2,0,0,1-.54-1.46,1.92,1.92,0,0,1,.42-1.28,1.24,1.24,0,0,1,1-.44,4,4,0,0,1,1.33.25,1,1,0,0,0,.34.06,1,1,0,0,0,.7-.28h0a1,1,0,0,0,.69.27h.1c.47,0,1-.08,1.49-.09,0,.53,0,1.13,0,1.82,0,1.45,0,2.56-.11,3.49a1,1,0,0,0,.26.76,1,1,0,0,0,.74.32h1.44a1,1,0,0,0,.74-.32,1,1,0,0,0,.26-.76c-.07-1-.11-2.11-.11-3.49,0-.67,0-1.29,0-1.82q.74,0,1.41.09h.1a.91.91,0,0,0,.51-.14c0,.55.05,1.17.05,1.84,0,1.79,0,2.87-.1,3.48a1,1,0,0,0,.23.76,1,1,0,0,0,.71.36c1.25,0,2.16,0,2.77,0a5.9,5.9,0,0,0,3.08-.71,3,3,0,0,0,1.31-1.86,4.27,4.27,0,0,0,1,1.54,4.64,4.64,0,0,0,3.23,1.29,4.69,4.69,0,0,0,3.43-1.43,5.07,5.07,0,0,0,1.45-3.82A4.84,4.84,0,0,0,189.38,40a4.44,4.44,0,0,0-3.23-1.29Zm-13,2.34h0ZM186,45.78a1,1,0,0,1-.91-.47,2.85,2.85,0,0,1-.47-1.65,2.49,2.49,0,0,1,.44-1.52l0,0a.88.88,0,0,1,.88-.45,1,1,0,0,1,.92.48,3.13,3.13,0,0,1,.46,1.64,2.55,2.55,0,0,1-.43,1.52.05.05,0,0,0,0,0,.9.9,0,0,1-.89.45Zm-9.26-3.88.78,0a1.61,1.61,0,0,1,.59.08v0s0,0-.05.07a1.45,1.45,0,0,1-.65.12h-.66c0-.09,0-.18,0-.27Zm0,3.19h.47a3.77,3.77,0,0,1,1.08.11l.07,0h0s0,0,0,.1v.08h0a1.82,1.82,0,0,1-.9.14h-.72v-.45Z" transform="translate(0)"/></g></g><g id="_749428096-2" data-name=" 749428096"><g id="_8-2" data-name=" 8"><path class="cls-1" d="M159.14,40h0l0,1.16c-.85-.08-1.7-.14-2.52-.14,0,.74,0,1.68,0,2.84s0,2.46.11,3.6H155.2c.08-1.05.11-2.24.11-3.6,0-1.14,0-2.07-.06-2.84-.82,0-1.67.06-2.55.14l.06-1.16h6.38m0-1h-6.38a1,1,0,0,0-1,1l-.06,1.17a1,1,0,0,0,1,1h.1c.55,0,1-.09,1.49-.11,0,.53,0,1.13,0,1.81,0,1.47,0,2.59-.11,3.52a1,1,0,0,0,.26.76,1,1,0,0,0,.74.32h1.44a1,1,0,0,0,.74-.32,1,1,0,0,0,.26-.76c-.07-1-.11-2.12-.11-3.52,0-.69,0-1.29,0-1.81.44,0,.92.06,1.44.11h.1a1,1,0,0,0,.66-.25,1,1,0,0,0,.34-.72l0-1a1.15,1.15,0,0,0,0-.19,1,1,0,0,0-1-1Z" transform="translate(0)"/></g></g><path class="cls-65" d="M155.2,48a.52.52,0,0,1-.37-.16.53.53,0,0,1-.13-.38c.08-.94.11-2.06.11-3.53,0-.9,0-1.67,0-2.34-.72,0-1.39.05-2,.11h-.05a.48.48,0,0,1-.34-.13.51.51,0,0,1-.16-.39l.06-1.16a.5.5,0,0,1,.5-.48h6.35a.48.48,0,0,1,.36.16.47.47,0,0,1,.14.37l-.06,1.16a.47.47,0,0,1-.17.35.5.5,0,0,1-.33.12H159c-.62-.06-1.25-.1-2-.11,0,.64,0,1.43,0,2.34,0,1.39,0,2.51.11,3.53a.52.52,0,0,1-.13.38.51.51,0,0,1-.37.16Z" transform="translate(0)"/><path class="cls-1" d="M159.11,40l-.06,1.16c-.85-.08-1.67-.11-2.49-.11,0,.71,0,1.67,0,2.84s0,2.43.11,3.57H155.2c.08-1.05.11-2.24.11-3.57,0-1.14,0-2.07-.06-2.84-.82,0-1.67,0-2.55.11l.06-1.16h6.35m0-1h-6.35a1,1,0,0,0-1,1l-.06,1.17a1,1,0,0,0,1,1h.1c.47,0,1-.08,1.49-.09,0,.53,0,1.13,0,1.82,0,1.45,0,2.56-.11,3.49a1,1,0,0,0,.26.76,1,1,0,0,0,.74.32h1.44a1,1,0,0,0,.74-.32,1,1,0,0,0,.26-.76c-.07-1-.11-2.11-.11-3.49,0-.67,0-1.29,0-1.82q.74,0,1.41.09h.1a1,1,0,0,0,.66-.24,1,1,0,0,0,.34-.71l.06-1.16a1,1,0,0,0-.28-.74,1,1,0,0,0-.72-.31Zm0,2h0Z" transform="translate(0)"/></svg>