<?xml version="1.0" encoding="UTF-8"?>
<!DOCTYPE svg PUBLIC "-//W3C//DTD SVG 1.1//EN" "http://www.w3.org/Graphics/SVG/1.1/DTD/svg11.dtd">
<!-- Creator: CorelDRAW X7 -->
<svg xmlns="http://www.w3.org/2000/svg" xml:space="preserve" width="67.712mm" height="18.2623mm" version="1.1" style="shape-rendering:geometricPrecision; text-rendering:geometricPrecision; image-rendering:optimizeQuality; fill-rule:evenodd; clip-rule:evenodd"
viewBox="0 0 6770 1826"
 xmlns:xlink="http://www.w3.org/1999/xlink">
 <defs>
  <style type="text/css">
   <![CDATA[
    .str0 {stroke:#FEFEFE;stroke-width:49.9931;stroke-linecap:round;stroke-linejoin:round}
    .fil0 {fill:none}
    .fil19 {fill:#036997}
    .fil32 {fill:#055B84}
    .fil27 {fill:#0E5272}
    .fil14 {fill:#1685BA}
    .fil1 {fill:#1B4E9B}
    .fil56 {fill:#1D672E}
    .fil13 {fill:#243F5E}
    .fil59 {fill:#267531}
    .fil57 {fill:#276F97}
    .fil3 {fill:#2A517D}
    .fil45 {fill:#2C7BA6}
    .fil23 {fill:#3793C8}
    .fil58 {fill:#4D8DB7}
    .fil48 {fill:#509131}
    .fil16 {fill:#579AC8}
    .fil29 {fill:#67A7D7}
    .fil46 {fill:#69972E}
    .fil44 {fill:#699DC5}
    .fil12 {fill:#88B2DA}
    .fil53 {fill:#8CB024}
    .fil49 {fill:#932B16}
    .fil61 {fill:#9ABA1B}
    .fil11 {fill:#9CC2E5}
    .fil39 {fill:#A94728}
    .fil17 {fill:#ACB0B8}
    .fil54 {fill:#B2C709}
    .fil30 {fill:#B42F15}
    .fil15 {fill:#B8C6D8}
    .fil36 {fill:#C45B2A}
    .fil10 {fill:#C7D5E8}
    .fil51 {fill:#C9C3BC}
    .fil47 {fill:#C9D30C}
    .fil63 {fill:#D1D830}
    .fil43 {fill:#D26C2A}
    .fil35 {fill:#D33C19}
    .fil52 {fill:#D6DB4F}
    .fil60 {fill:#D8DF63}
    .fil55 {fill:#DFE482}
    .fil33 {fill:#E17C2A}
    .fil9 {fill:#E24C23}
    .fil40 {fill:#E3DCCE}
    .fil62 {fill:#E3E592}
    .fil5 {fill:#E56D0D}
    .fil50 {fill:#E7E9B1}
    .fil2 {fill:#E88906}
    .fil28 {fill:#E8E6D6}
    .fil4 {fill:#EA8759}
    .fil7 {fill:#EB6C3C}
    .fil34 {fill:#EB971D}
    .fil26 {fill:#F3CB49}
    .fil22 {fill:#F6B010}
    .fil18 {fill:#F6EACA}
    .fil8 {fill:#F8F3E6}
    .fil37 {fill:#FAD762}
    .fil20 {fill:#FCC705}
    .fil42 {fill:#FDD327}
    .fil21 {fill:#FDEDBC}
    .fil41 {fill:#FED649}
    .fil38 {fill:#FED963}
    .fil31 {fill:#FEDE7B}
    .fil6 {fill:#FEE69B}
    .fil24 {fill:#FEEBB3}
    .fil25 {fill:#FEF1CB}
    .fil64 {fill:#1B4E9B;fill-rule:nonzero}
   ]]>
  </style>
 </defs>
 <g id="Слой_x0020_1">
  <metadata id="CorelCorpID_0Corel-Layer"/>
  <g id="_749436128">
   <path class="fil0 str0" d="M3421 615c207,-75 293,242 110,304 -209,73 -291,-240 -110,-304zm202 379l9 38 127 2 0 -531c-151,-3 -126,-7 -128,41 -99,-48 -176,-81 -295,-24 -76,38 -145,121 -149,235 -7,235 252,375 436,239l0 0 0 0 0 0z"/>
   <path id="_1" class="fil1" d="M3421 615c207,-75 293,242 110,304 -209,73 -291,-240 -110,-304zm202 379l9 38 127 2 0 -531c-151,-3 -126,-7 -128,41 -99,-48 -176,-81 -295,-24 -76,38 -145,121 -149,235 -7,235 252,375 436,239l0 0 0 0 0 0z"/>
  </g>
  <g id="_749455360">
   <path class="fil0 str0" d="M2195 958l-45 -115c-71,35 -127,99 -249,61 -79,-23 -134,-95 -141,-191 -6,-96 44,-173 109,-208 42,-22 99,-26 150,-12 57,13 72,41 114,56l57 -96c-56,-91 -250,-124 -376,-72 -111,46 -200,153 -205,305 -10,323 339,464 586,272l0 0 0 0 0 0z"/>
   <path id="_1_0" class="fil1" d="M2195 958l-45 -115c-71,35 -127,99 -249,61 -79,-23 -134,-95 -141,-191 -6,-96 44,-173 109,-208 42,-22 99,-26 150,-12 57,13 72,41 114,56l57 -96c-56,-91 -250,-124 -376,-72 -111,46 -200,153 -205,305 -10,323 339,464 586,272l0 0 0 0 0 0z"/>
  </g>
  <g id="_749443648">
   <path class="fil0 str0" d="M2349 795c-24,-235 284,-253 307,-47 10,95 -51,168 -127,180 -93,18 -173,-51 -180,-133l0 0zm97 -296c-375,70 -272,619 123,539 138,-27 257,-161 214,-339 -32,-134 -171,-231 -337,-200l0 0 0 0z"/>
   <path id="_1_1" class="fil1" d="M2349 795c-24,-235 284,-253 307,-47 10,95 -51,168 -127,180 -93,18 -173,-51 -180,-133l0 0zm97 -296c-375,70 -272,619 123,539 138,-27 257,-161 214,-339 -32,-134 -171,-231 -337,-200l0 0 0 0z"/>
  </g>
  <path class="fil2" d="M518 247l81 0 482 -1 126 1c-40,-84 -290,-249 -455,-235 -41,21 1,7 -30,23 -5,2 -38,9 -46,11 -63,15 -27,29 -78,42 -4,108 -12,17 -21,86 -36,1 -24,-1 -48,12 1,37 -4,23 9,48 -40,1 -3,-2 -20,13l0 0 0 0z"/>
  <g id="_749442656">
   <path class="fil0 str0" d="M4067 927c-94,-25 -72,-40 -72,-261 0,-100 10,-244 -2,-340l-127 0c-14,148 -3,362 -2,518 0,174 110,216 189,193 27,-8 17,-74 14,-110l0 0 0 0z"/>
   <path id="_1_2" class="fil1" d="M4067 927c-94,-25 -72,-40 -72,-261 0,-100 10,-244 -2,-340l-127 0c-14,148 -3,362 -2,518 0,174 110,216 189,193 27,-8 17,-74 14,-110l0 0 0 0z"/>
  </g>
  <g id="_749442944">
   <path class="fil0 str0" d="M2855 1034l134 0c0,-189 -40,-412 186,-405l-1 -130c-50,-1 -89,7 -122,31 -33,26 -44,54 -67,81l-2 -108 -125 -3 -3 534 0 0 0 0 0 0z"/>
   <path id="_1_3" class="fil1" d="M2855 1034l134 0c0,-189 -40,-412 186,-405l-1 -130c-50,-1 -89,7 -122,31 -33,26 -44,54 -67,81l-2 -108 -125 -3 -3 534 0 0 0 0 0 0z"/>
  </g>
  <g id="_749443296">
   <path class="fil0 str0" d="M5139 547c139,-38 250,56 276,166 33,143 -48,252 -157,281 -294,81 -412,-364 -119,-447l0 0zm283 390l0 97 47 -3 -1 -527 -45 -4 -1 111c-37,-37 -61,-70 -123,-95 -160,-68 -367,36 -379,239 -8,139 76,232 172,272 60,23 134,24 195,5 28,-10 52,-22 70,-37l65 -58 0 0z"/>
   <path id="_1_4" class="fil1" d="M5139 547c139,-38 250,56 276,166 33,143 -48,252 -157,281 -294,81 -412,-364 -119,-447l0 0zm283 390l0 97 47 -3 -1 -527 -45 -4 -1 111c-37,-37 -61,-70 -123,-95 -160,-68 -367,36 -379,239 -8,139 76,232 172,272 60,23 134,24 195,5 28,-10 52,-22 70,-37l65 -58 0 0z"/>
  </g>
  <g id="_749438432">
   <path class="fil0 str0" d="M6460 724l-389 0c5,-102 89,-188 195,-193 112,-4 202,83 194,193l0 0zm22 251c-9,-27 -7,-21 -18,-43 -39,19 -51,44 -108,61 -136,41 -304,-61 -285,-224l441 -1c29,-342 -389,-365 -479,-108 -53,154 17,278 100,336 127,88 254,47 349,-21l0 0 0 0 0 0z"/>
   <path id="_1_5" class="fil1" d="M6460 724l-389 0c5,-102 89,-188 195,-193 112,-4 202,83 194,193l0 0zm22 251c-9,-27 -7,-21 -18,-43 -39,19 -51,44 -108,61 -136,41 -304,-61 -285,-224l441 -1c29,-342 -389,-365 -479,-108 -53,154 17,278 100,336 127,88 254,47 349,-21l0 0 0 0 0 0z"/>
  </g>
  <path class="fil3" d="M490 1355c13,-19 -9,-9 29,-12l129 3c102,-3 223,-45 306,-108 19,-14 3,-2 24,-14 2,-1 11,-6 13,-7 18,-12 4,-1 18,-15l-85 3 -95 4 -104 -1 -187 0 -61 -3 -244 0c46,66 187,134 257,150l0 0 0 0z"/>
  <path class="fil4" d="M25 874l406 -1 56 0c-7,-4 -7,-9 -25,-11 -9,-3 -28,-3 -38,-3 10,-29 1,-83 1,-135l188 -16 -104 -1 -67 0 -75 1 -64 0 -99 2 -204 -2c-2,60 6,120 25,167l0 -1 0 0 0 0z"/>
  <path class="fil5" d="M167 247l163 0 165 -1 23 1c17,-15 -20,-12 20,-13 -13,-25 -8,-11 -9,-48 24,-13 12,-11 48,-12 9,-69 17,22 21,-86 51,-13 15,-27 78,-42 8,-2 41,-9 46,-11 31,-16 -11,-2 30,-23l0 -12 -98 0c-21,8 -109,16 -146,27 -49,13 -96,31 -135,51 -76,41 -174,113 -206,169l0 0 0 0 0 0z"/>
  <path class="fil6" d="M466 382l7 238 72 -3 41 3 0 -231 94 -4 35 -2 11 -118 183 -12 168 0 4 -7 -482 1c-35,20 -36,14 -86,17 -2,41 -5,89 8,115l-55 3 0 0 0 0z"/>
  <path class="fil7" d="M487 873l77 -1 142 0 77 1 88 -1 62 0 0 -1 -174 -13 19 -105c-19,-14 -16,-2 -19,-30l299 -13 0 0 -56 -2 -85 0 -55 0 -89 2 -109 -2 -51 0 -188 16c0,52 9,106 -1,135 10,0 29,0 38,3 18,2 18,7 25,11l0 0 0 0 0 0z"/>
  <path class="fil8" d="M33 521l2 92c95,14 172,-4 246,5l5 -230 -212 3c-16,35 -42,80 -41,130l0 0 0 0 0 0z"/>
  <g id="_749444992">
   <path class="fil0 str0" d="M5756 1034l29 0 32 -60c39,-97 169,-416 179,-474 -60,2 -39,-11 -81,92 -17,42 -29,74 -48,119 -27,72 -76,180 -92,251l-95 -230c-26,-72 -61,-167 -90,-232l-44 0c10,62 136,363 176,466l19 49c7,12 8,12 15,19l0 0 0 0z"/>
   <path id="_1_6" class="fil1" d="M5756 1034l29 0 32 -60c39,-97 169,-416 179,-474 -60,2 -39,-11 -81,92 -17,42 -29,74 -48,119 -27,72 -76,180 -92,251l-95 -230c-26,-72 -61,-167 -90,-232l-44 0c10,62 136,363 176,466l19 49c7,12 8,12 15,19l0 0 0 0z"/>
  </g>
  <path class="fil9" d="M933 871l150 -12c0,-68 -5,-104 21,-148l-46 -1 -299 13c2,28 0,16 19,30l-19 105 174 13 0 0 0 0 0 0z"/>
  <path class="fil10" d="M31 884c37,22 22,14 44,42 18,22 28,21 52,37 28,20 21,19 59,30 42,14 27,4 50,36 79,0 40,3 87,19 40,-19 20,12 42,-6 2,-3 22,-42 27,-52 26,-35 39,-38 39,-117l-406 1 6 10 0 0z"/>
  <path class="fil11" d="M323 1048l1 14c36,4 21,2 43,13l-2 58 -39 0 4 14c54,1 104,-12 147,-14l-16 26 50 -7c15,-35 -2,-31 44,-42l9 -238 -77 1 -56 0c0,79 -14,82 -39,117 -5,10 -25,49 -27,52 -22,18 -2,-13 -42,6l0 0 0 0 0 0z"/>
  <g id="_749418496">
   <path class="fil0 str0" d="M4607 1030l2 -29c-44,-22 -57,8 -109,-41 -72,-67 -44,-283 -44,-413l138 0 3 -45 -141 -2 -1 -141 -47 -7c-3,117 -28,541 41,630 28,36 98,74 158,48l0 0 0 0 0 0z"/>
   <path id="_1_7" class="fil1" d="M4607 1030l2 -29c-44,-22 -57,8 -109,-41 -72,-67 -44,-283 -44,-413l138 0 3 -45 -141 -2 -1 -141 -47 -7c-3,117 -28,541 41,630 28,36 98,74 158,48l0 0 0 0 0 0z"/>
  </g>
  <path class="fil12" d="M511 1152l32 2c-35,10 -5,4 -17,30l-47 2 -2 19 61 3c28,-18 14,-12 67,-15l22 -28c13,-12 13,-12 30,-25 -28,-28 7,-25 12,-90l26 -11c0,-60 9,-99 11,-167l-142 0 -9 238c-46,11 -29,7 -44,42l0 0z"/>
  <g id="_749436640">
   <path class="fil0 str0" d="M4732 622l-3 -122 -45 0 -2 534 48 0c0,-140 -42,-503 197,-488 2,-12 6,-12 3,-26 -17,-77 -185,27 -198,102l0 0 0 0z"/>
   <path id="_1_8" class="fil1" d="M4732 622l-3 -122 -45 0 -2 534 48 0c0,-140 -42,-503 197,-488 2,-12 6,-12 3,-26 -17,-77 -185,27 -198,102l0 0 0 0z"/>
  </g>
  <g id="_749439136">
   <path class="fil0 str0" d="M6685 1031l51 5 -2 -43c-75,-6 -74,-42 -74,-108 -1,-153 9,-439 -2,-559l-40 0c-11,110 -1,266 -1,381 0,107 -34,294 68,324l0 0 0 0z"/>
   <path id="_1_9" class="fil1" d="M6685 1031l51 5 -2 -43c-75,-6 -74,-42 -74,-108 -1,-153 9,-439 -2,-559l-40 0c-11,110 -1,266 -1,381 0,107 -34,294 68,324l0 0 0 0z"/>
  </g>
  <path class="fil13" d="M490 1355c202,52 426,30 593,-95l59 -53 -70 -3 -52 3 -11 -5c-14,14 0,4 -18,15 -2,1 -11,6 -13,7 -21,12 -5,0 -24,14 -83,63 -204,105 -306,108l-129 -3c-38,3 -16,-7 -29,12l0 0 0 0z"/>
  <path class="fil14" d="M944 1090l48 -2 2 39c53,-8 14,-28 53,-13l2 -45c42,-26 38,-39 51,-95 13,-55 17,-29 31,-50 10,-14 3,-9 11,-26 5,-11 9,-17 15,-25l-23 -1 -161 0c-1,51 -5,72 -10,110 -2,21 0,34 -5,55 -11,36 -13,6 -14,53l0 0 0 0 0 0z"/>
  <path class="fil15" d="M105 1053c23,9 38,12 55,23 35,23 2,10 46,24 43,12 61,27 120,33l39 0 2 -58c-22,-11 -7,-9 -43,-13l-1 -14c-47,-16 -8,-19 -87,-19 -23,-32 -8,-22 -50,-36 -38,-10 -31,-10 -59,-30 -24,-16 -34,-15 -52,-37 -22,-28 -7,-20 -44,-42 11,57 39,140 74,169l0 0 0 0z"/>
  <path class="fil16" d="M723 1117l27 -4 2 74 28 -5c11,-27 26,-43 43,-63 2,1 19,10 23,14l15 -23 10 -238 -88 1c0,52 -3,100 -13,148 -5,17 -13,34 -21,59 -10,30 -5,26 -26,37l0 0z"/>
  <path class="fil17" d="M233 1206l244 0 2 -20 47 -2c12,-26 -18,-21 17,-30l-32 -2 -51 7 17 -26c-43,2 -93,15 -147,14l-4 -14c-59,-6 -77,-21 -121,-33 -43,-14 -10,-1 -45,-24 -17,-11 -32,-14 -55,-23 29,58 87,128 128,153l0 0 0 0 0 0z"/>
  <path class="fil18" d="M881 381l160 2 76 2c-2,-16 -11,-60 -18,-73 -10,-22 -25,-25 -22,-60l-168 0 -16 98c-9,28 -1,-8 -12,31l0 0z"/>
  <path class="fil19" d="M1047 1114c-15,44 -11,20 -7,70 43,-51 82,-72 121,-141 18,-32 34,-57 51,-90 12,-27 15,-20 25,-37 11,-17 13,-28 19,-43l-22 0 -77 0c-6,8 -10,14 -15,25 -8,17 -1,12 -11,26 -14,21 -18,-5 -31,50 -13,56 -9,69 -51,95l-2 45 0 0z"/>
  <polygon class="fil20" points="809,618 867,620 916,621 915,388 808,389 "/>
  <path class="fil21" d="M286 388c37,-3 57,4 91,14l1 220 95 -2 -7 -238 -93 3 -112 -3 -187 4 0 5 212 -2 0 0 0 0 0 -1z"/>
  <polygon class="fil22" points="916,621 962,621 1019,620 1017,387 915,388 "/>
  <path class="fil23" d="M846 1133l5 5c2,0 5,3 5,3l13 9c17,-7 24,-11 37,-27 26,-29 -9,-8 38,-33 1,-47 3,-17 14,-53 5,-21 3,-34 5,-54 5,-39 9,-60 10,-111l-40 0 -62 0 -10 238 -15 23 0 0 0 0z"/>
  <path class="fil24" d="M715 383l25 -1 141 -1c11,-39 3,-2 12,-31l16 -98 -183 13 -11 118 0 0z"/>
  <path class="fil25" d="M281 618l84 2 13 2 -1 -220c-34,-10 -54,-17 -91,-14l-5 230 0 0 0 0 0 0z"/>
  <path class="fil26" d="M74 385l187 -3 3 -121 66 -14 -163 0c-33,30 -77,84 -93,138l0 0 0 0 0 0z"/>
  <path class="fil27" d="M1072 1204l70 3c63,-21 187,-222 211,-336l-41 2c-10,86 -148,240 -207,290l-33 41 0 0 0 0 0 0z"/>
  <path class="fil28" d="M0 708l204 2 0 -82 77 -10c-74,-9 -151,9 -246,-5l-2 -92 -9 12c-18,41 -22,130 -24,175l0 0 0 0z"/>
  <path class="fil29" d="M657 1140c12,-8 0,-6 27,-14 17,-7 15,-5 39,-9 21,-11 16,-7 26,-37 8,-25 16,-42 21,-59 10,-48 13,-96 13,-148l-77 -1c-2,68 -11,107 -11,167l-26 11c-5,65 -40,62 -12,90l0 0z"/>
  <path class="fil30" d="M1104 711l104 9c-6,65 -35,87 -39,140l-35 12 23 1 77 0 59 -15c6,-57 26,-45 31,-133l-57 -17 -43 0 -108 0 -58 2 0 0 46 1 0 0z"/>
  <path class="fil31" d="M373 385l93 -3 55 -3c-13,-26 -10,-74 -8,-115 50,-3 51,3 86,-17l-81 0 -23 -1 -121 18 -1 120 0 0 0 0 0 1z"/>
  <path class="fil32" d="M1040 1184c-31,12 -12,-9 -20,23l52 -3 33 -41c59,-50 197,-204 207,-290l-56 0c-6,15 -8,26 -19,43 -10,17 -13,10 -25,37 -17,33 -33,58 -51,90 -39,69 -78,90 -121,141l0 0 0 0z"/>
  <path class="fil33" d="M1091 621l78 -1c3,-60 9,-178 -11,-222l46 -7 16 -8 -103 2 -76 -2 0 2 48 4 2 232 0 0z"/>
  <polygon class="fil34" points="1019,620 1074,620 1091,621 1089,389 1041,385 1017,387 "/>
  <path class="fil35" d="M933 871l0 1 40 0 161 0 35 -12c4,-53 33,-75 39,-140l-104 -9c-26,44 -21,81 -21,148l-150 12 0 0 0 0z"/>
  <path class="fil36" d="M1204 391c26,58 18,150 18,229l73 0 -13 -222 22 -5 -8 -10 -65 1 -11 -1 -16 8 0 0z"/>
  <polygon class="fil37" points="261,382 373,385 374,264 495,246 330,247 264,261 "/>
  <path class="fil38" d="M648 620l60 -2 4 2 0 -208c14,-28 -6,-6 28,-30l-25 1 -36 2c-43,22 -18,-2 -31,27l0 208 0 0 0 0 0 0z"/>
  <path class="fil31" d="M586 620l36 0 26 0 0 -208c13,-29 -12,-5 32,-28l-94 5 0 231 0 0 0 0z"/>
  <path class="fil39" d="M1295 620l78 -2c-11,-70 -30,-174 -69,-225l-22 5 13 223 0 0 0 -1 0 0z"/>
  <path class="fil40" d="M1117 385l103 -2 10 1c-6,-23 0,-2 -7,-17l-7 -13c-10,-20 -7,-16 -14,-37 -7,-24 -15,-33 -24,-53l-101 -11c-3,34 12,37 22,59 7,13 16,57 18,73l0 0 0 0z"/>
  <path class="fil41" d="M712 620l44 0 0 -222 52 -9 107 -1 102 -1 24 -2 0 -3 -160 -1 -141 1c-34,24 -14,2 -28,30l0 209 0 0 0 -1 0 0z"/>
  <polygon class="fil42" points="756,620 809,618 808,389 756,398 "/>
  <path class="fil43" d="M1169 620l27 0 26 0c0,-79 8,-171 -18,-229l-46 7c20,44 14,162 11,222z"/>
  <path class="fil44" d="M657 1140c-17,13 -17,13 -30,25l-22 28c-53,3 -39,-3 -67,15l187 0c11,-12 -2,0 17,-14 1,-1 4,-1 5,-4 2,-3 4,-2 5,-3l-2 -74 -27 4c-24,4 -22,2 -39,9 -27,8 -15,6 -27,14l0 0z"/>
  <path class="fil45" d="M869 1150c-13,47 -14,30 -40,59l95 -3 70 -79 -2 -39 -48 2c-47,25 -12,4 -38,34 -13,15 -19,19 -37,26l0 0 0 0z"/>
  <polygon class="fil46" points="1002,708 1058,710 1116,708 1117,638 1196,620 1169,620 1091,621 1074,620 1004,637 "/>
  <path class="fil47" d="M664 708l109 2 0 -78 92 -12 2 0 -58 -2 -53 2 -44 0 -4 -2c-5,2 -22,9 -22,9 -24,15 -11,0 -22,21l0 60 0 0 0 0z"/>
  <polygon class="fil48" points="1116,708 1224,708 1225,630 1293,624 1374,623 1373,618 1295,620 1222,620 1196,620 1117,638 "/>
  <path class="fil49" d="M1234 873l22 0 56 0 41 -2 22 -163 -83 0 -25 0 57 17c-5,88 -25,76 -31,133l-59 15 0 0 0 0z"/>
  <polygon class="fil50" points="204,710 303,708 303,631 366,622 365,620 281,618 204,628 "/>
  <path class="fil51" d="M1230 385l66 -2c-17,-50 -59,-102 -89,-136l-126 -1 -4 7 101 11c9,20 17,29 24,53 7,21 4,17 14,37l7 13c7,15 1,-6 7,17l0 0 0 0 0 1z"/>
  <path class="fil52" d="M509 623l0 84 104 1c-7,-44 -12,-50 9,-88l-36 0 -41 -3 -36 6 0 0 0 0 0 0z"/>
  <path class="fil53" d="M917 708l85 0 2 -71 70 -17 -55 0 -57 1c-7,4 -9,9 -28,15 -9,3 -9,2 -17,2l0 70 0 0 0 0z"/>
  <polygon class="fil54" points="773,710 862,708 865,620 773,632 "/>
  <polygon class="fil55" points="367,708 442,707 442,634 509,623 545,617 473,620 378,622 365,620 366,622 "/>
  <polygon class="fil56" points="1292,708 1375,708 1374,623 1293,624 "/>
  <path class="fil57" d="M994 1127l-70 79 85 -4 11 5c8,-32 -11,-11 20,-23 -4,-50 -8,-26 7,-70 -39,-15 0,5 -53,13l0 0 0 0 0 0z"/>
  <path class="fil58" d="M752 1187c-1,1 -3,0 -5,3 -1,3 -4,3 -5,4 -19,14 -6,2 -17,14l104 1c26,-29 27,-12 40,-59l-13 -9c0,0 -3,-3 -4,-3l-6 -5c-4,-4 -21,-13 -23,-14 -17,20 -32,36 -43,63l-28 5 0 0 0 0z"/>
  <polygon class="fil59" points="1224,708 1267,708 1292,708 1293,624 1225,630 "/>
  <polygon class="fil60" points="442,707 509,707 509,623 442,634 "/>
  <path class="fil61" d="M862 708l55 0 0 -70c8,0 8,1 17,-2 19,-6 21,-11 28,-15l-46 0 -49 -1 -2 0 -3 88 0 0 0 0z"/>
  <polygon class="fil62" points="303,708 367,708 366,622 303,631 "/>
  <path class="fil63" d="M613 708l51 0 0 -60c11,-21 -2,-6 22,-21 0,0 17,-7 22,-9l-60 2 -26 0c-21,38 -16,44 -9,88l0 0 0 0 0 0z"/>
  <g id="_749406304">
   <path class="fil0 str0" d="M6685 1031c29,18 19,17 57,6 7,-52 2,-30 -8,-44l2 43 -51 -5 0 0z"/>
   <path id="_1_10" class="fil1" d="M6685 1031c29,18 19,17 57,6 7,-52 2,-30 -8,-44l2 43 -51 -5 0 0z"/>
  </g>
  <path class="fil0 str0" d="M3944 1313l-2 39c-37,-2 -75,-2 -114,-2 0,35 0,79 0,134 0,61 1,124 3,190l-50 0c2,-63 3,-126 3,-190 0,-54 -1,-98 -2,-134 -27,0 -66,1 -116,3l2 -40 276 0z"/>
  <g id="_749434880">
   <path id="_1_11" class="fil0 str0" d="M4202 1411c0,11 -14,49 -42,113 -33,73 -53,124 -60,153 -13,48 -25,79 -36,92 -14,19 -40,28 -78,28l-3 -39c24,0 43,-8 58,-24 15,-16 22,-35 22,-59 0,-20 -16,-69 -50,-146 -34,-78 -51,-116 -51,-118l58 0c0,4 11,38 34,100 23,63 35,102 35,116l3 0c0,-12 9,-47 29,-105 20,-58 30,-95 30,-111l51 0 0 0z"/>
  </g>
  <g id="_749432992">
   <path id="_2" class="fil0 str0" d="M4502 1531c0,41 -11,76 -34,106 -23,30 -55,44 -96,44 -34,0 -57,-6 -66,-17l-3 0c0,50 0,96 2,137l-53 0c5,-50 7,-110 7,-182 0,-90 -5,-159 -14,-207l49 -7 4 27 3 0c17,-20 46,-31 86,-31 36,0 64,13 84,38 21,26 31,57 31,92l0 0zm-49 7c0,-27 -8,-51 -22,-70 -15,-20 -35,-30 -61,-30 -34,0 -57,10 -71,31 3,62 4,116 4,160 15,13 34,19 58,19 31,0 54,-11 69,-32 15,-22 23,-48 23,-78l0 0z"/>
  </g>
  <g id="_749432448">
   <path id="_3" class="fil0 str0" d="M4775 1674l-44 1c-2,-8 -3,-16 -3,-25l-3 0c-23,20 -54,31 -94,31 -21,0 -39,-7 -55,-18 -14,-13 -22,-31 -22,-54 0,-28 12,-51 35,-69 25,-17 69,-26 135,-27 1,-5 1,-10 1,-15 0,-23 -6,-39 -18,-46 -13,-8 -31,-12 -56,-12 -29,0 -58,4 -85,11l4 -38c28,-7 60,-11 96,-11 33,0 59,7 77,19 18,14 27,37 27,70 0,9 -1,25 -2,48 -1,23 -1,38 -1,45 0,34 3,64 8,90zm-50 -53c-1,-29 -1,-54 -1,-76 -35,0 -62,2 -80,7 -30,10 -45,27 -45,54 0,25 17,37 53,37 31,0 55,-7 73,-22l0 0z"/>
  </g>
  <g id="_749425536">
   <path id="_4" class="fil0 str0" d="M5019 1411l-1 42c-33,-3 -78,-5 -135,-5 1,38 1,71 1,99 0,45 1,87 4,127l-50 0c3,-37 5,-79 5,-127 0,-53 -2,-99 -5,-136l181 0 0 0z"/>
  </g>
  <g id="_749422816">
   <path id="_5" class="fil0 str0" d="M5289 1511c0,8 -1,19 -1,32l-192 4c2,27 13,50 32,68 19,18 44,27 76,27 28,0 55,-3 79,-10l-4 38c-19,8 -45,11 -79,11 -49,0 -85,-12 -111,-38 -24,-27 -37,-59 -37,-97 0,-40 12,-75 34,-104 23,-29 54,-43 93,-43 36,0 63,10 82,31 19,21 28,48 28,81l0 0zm-47 1c0,-52 -21,-79 -65,-79 -45,0 -71,28 -79,82l144 -3z"/>
  </g>
  <g id="_749421856">
   <path id="_6" class="fil0 str0" d="M5575 1674l-49 0c3,-35 4,-76 4,-122l-133 0c0,42 1,83 4,122l-49 0c3,-37 4,-79 4,-127 0,-53 -3,-98 -10,-134l54 -7c-1,12 -2,49 -3,110l133 0c-2,-41 -5,-76 -10,-103l54 -7c-2,38 -3,85 -3,141 0,45 1,87 4,127l0 0z"/>
  </g>
  <g id="_749427904">
   <path id="_7" class="fil0 str0" d="M5849 1632l-3 36c-14,9 -34,13 -59,13 -48,0 -85,-13 -110,-39 -26,-26 -38,-58 -38,-96 0,-40 13,-74 40,-102 26,-29 62,-42 106,-42 22,0 40,2 54,7l-8 42c-19,-7 -39,-11 -59,-11 -26,0 -47,10 -63,28 -16,18 -23,41 -23,69 0,30 9,55 27,75 19,20 45,30 79,30 14,0 33,-3 57,-10l0 0z"/>
  </g>
  <g id="_749428096">
   <path id="_8" class="fil0 str0" d="M6106 1411l-1 41c-30,-3 -60,-5 -89,-5 -1,26 -1,59 -1,100 0,45 1,87 4,127l-51 0c3,-37 4,-79 4,-127 0,-40 -1,-73 -2,-100 -29,0 -59,2 -90,5l2 -41 225 0 -1 0z"/>
  </g>
  <g id="_749419968">
   <path id="_9" class="fil0 str0" d="M6372 1596c0,26 -10,46 -31,60 -21,13 -51,19 -90,19 -21,0 -53,0 -96,-1 2,-25 3,-67 3,-127 0,-56 -3,-101 -9,-136l29 0c27,-2 55,-3 84,-3 66,0 99,19 99,60 0,30 -13,51 -40,62l0 3c35,7 51,28 51,63l0 0zm-44 3c0,-19 -9,-32 -26,-39 -11,-4 -28,-6 -51,-6 -17,0 -34,1 -52,2 0,33 1,61 1,83 17,2 37,3 61,3 45,0 67,-14 67,-43zm-10 -119c0,-26 -19,-39 -57,-39 -18,0 -40,1 -64,3 2,27 2,53 2,78 24,0 43,1 59,1 19,0 34,-4 45,-12 10,-8 15,-18 15,-31l0 0z"/>
  </g>
  <g id="_749419840">
   <path id="_10" class="fil0 str0" d="M6691 1534c0,48 -13,85 -41,112 -27,25 -58,38 -95,38 -34,0 -64,-11 -89,-34 -25,-23 -37,-57 -37,-100 0,-48 14,-85 41,-112 27,-27 60,-39 96,-39 35,0 64,11 88,35 25,23 37,57 37,100zm-48 10c0,-29 -7,-55 -22,-77 -13,-23 -34,-34 -61,-34 -27,0 -47,11 -62,32 -14,21 -21,46 -21,74 0,29 7,55 22,78 14,22 35,33 62,33 27,0 47,-10 61,-32 14,-21 21,-46 21,-74l0 0z"/>
  </g>
  <g id="_749424704">
   <path class="fil64" d="M3944 1313l-2 39c-36,-2 -74,-2 -113,-2 -1,35 -1,80 -1,135 0,60 1,123 3,189l-51 0c3,-63 4,-126 4,-189 0,-54 -1,-99 -2,-135 -27,0 -66,1 -115,3l1 -40 276 0zm258 98c0,12 -14,49 -42,113 -32,73 -52,124 -60,154 -13,48 -24,79 -35,92 -15,18 -41,27 -79,27l-3 -39c24,0 43,-8 58,-23 15,-16 23,-36 23,-59 0,-21 -17,-70 -51,-147 -34,-77 -51,-117 -51,-118l57 0c0,5 12,38 35,101 24,62 35,101 35,115l3 0c0,-12 10,-47 30,-105 19,-57 29,-94 29,-111l51 0zm300 121c0,40 -11,75 -34,105 -23,30 -55,45 -95,45 -34,0 -57,-6 -68,-18l-2 0c0,51 0,97 1,137l-52 0c4,-49 7,-110 7,-182 0,-89 -5,-158 -14,-207l49 -7 4 27 2 0c18,-20 47,-31 88,-31 35,0 63,13 83,39 21,26 31,56 31,92zm-49 6c0,-27 -7,-50 -22,-70 -14,-19 -35,-29 -61,-29 -33,0 -57,10 -71,30 3,62 4,116 4,160 15,13 35,19 59,19 30,0 53,-11 68,-32 15,-22 23,-47 23,-78zm322 136l-44 2c-2,-9 -3,-18 -3,-26l-3 0c-23,21 -54,31 -93,31 -21,0 -40,-6 -55,-18 -15,-13 -23,-31 -23,-54 0,-28 12,-51 36,-69 24,-17 69,-26 134,-27 1,-4 1,-9 1,-15 0,-23 -6,-38 -18,-46 -12,-7 -31,-11 -55,-11 -29,0 -58,4 -86,11l5 -38c27,-8 59,-12 95,-12 33,0 59,7 77,20 18,14 26,37 26,70 0,8 0,24 -1,47 -1,23 -1,38 -1,46 0,33 2,63 8,89zm-50 -53c0,-29 -1,-54 -1,-76 -35,0 -61,2 -79,8 -31,9 -46,27 -46,53 0,25 18,37 53,37 31,0 55,-7 73,-22zm294 -210l-2 43c-32,-4 -77,-5 -134,-5 1,37 2,70 2,99 0,44 1,86 4,126l-50 0c3,-37 4,-79 4,-126 0,-54 -1,-99 -4,-137l180 0zm270 101c0,7 -1,18 -1,32l-191 3c2,27 12,50 31,68 19,18 45,27 76,27 28,0 55,-3 79,-10l-5 39c-18,7 -44,11 -78,11 -48,0 -85,-13 -110,-40 -25,-26 -38,-58 -38,-96 0,-40 12,-75 35,-104 23,-29 54,-43 92,-43 36,0 63,10 82,31 18,21 28,48 28,82zm-47 0c0,-52 -21,-78 -65,-78 -44,0 -70,27 -78,81l143 -3zm333 162l-49 0c3,-35 4,-76 4,-122l-133 0c0,42 2,82 4,122l-48 0c3,-37 4,-79 4,-126 0,-54 -3,-99 -10,-135l54 -7c-1,13 -2,50 -4,111l132 0c-1,-42 -4,-76 -9,-104l54 -7c-2,38 -3,86 -3,142 0,44 1,86 4,126zm275 -42l-3 37c-15,9 -35,13 -60,13 -48,0 -85,-13 -110,-40 -25,-26 -38,-58 -38,-96 0,-39 13,-73 40,-102 27,-28 62,-42 106,-42 22,0 40,2 54,6l-8 44c-19,-7 -39,-11 -59,-11 -26,0 -47,9 -63,28 -15,18 -23,41 -23,68 0,30 9,55 28,75 18,20 44,30 78,30 14,0 33,-3 58,-10zm256 -221l-2 41c-30,-3 -59,-4 -88,-4 -1,25 -1,59 -1,100 0,44 1,86 4,126l-51 0c3,-37 4,-79 4,-126 0,-40 -1,-73 -2,-100 -29,0 -59,1 -90,4l2 -41 224 0zm267 185c0,26 -11,46 -32,60 -21,13 -51,20 -90,20 -21,0 -53,0 -96,-2 3,-25 4,-67 4,-127 0,-55 -3,-101 -10,-136l29 0c28,-2 56,-3 84,-3 66,0 99,20 99,61 0,30 -14,50 -40,61l0 3c34,7 52,28 52,63zm-45 3c0,-19 -9,-32 -26,-38 -11,-4 -28,-6 -50,-6 -18,0 -35,0 -52,1 0,33 0,61 0,83 17,2 37,3 61,3 44,0 67,-14 67,-43zm-10 -118c0,-26 -19,-39 -56,-39 -19,0 -40,1 -65,2 2,27 3,53 3,78 23,1 42,1 58,1 19,0 34,-4 45,-12 10,-8 15,-18 15,-30zm374 54c0,47 -14,84 -41,110 -27,27 -59,40 -96,40 -34,0 -64,-12 -89,-35 -24,-24 -37,-57 -37,-99 0,-48 14,-85 41,-112 27,-27 60,-40 96,-40 35,0 64,11 89,35 24,24 37,57 37,101zm-48 9c0,-29 -8,-54 -22,-77 -15,-22 -35,-33 -62,-33 -27,0 -47,10 -61,32 -15,21 -22,45 -22,74 0,29 7,54 22,77 14,22 35,33 62,33 27,0 47,-10 61,-32 15,-21 22,-46 22,-74z"/>
  </g>
 </g>
</svg>
